<mxfile host="app.diagrams.net" modified="2024-07-09T08:19:59.752Z" agent="Mozilla/5.0 (Windows NT 10.0; Win64; x64) AppleWebKit/537.36 (KHTML, like Gecko) Chrome/126.0.0.0 Safari/537.36" etag="3JVi5Ne9tyD37qpPZqHs" version="24.6.4" type="device" pages="4">
  <diagram id="C5RBs43oDa-KdzZeNtuy" name="v1">
    <mxGraphModel dx="2100" dy="2293" grid="1" gridSize="10" guides="1" tooltips="1" connect="1" arrows="1" fold="1" page="1" pageScale="1" pageWidth="827" pageHeight="1169" math="0" shadow="0">
      <root>
        <mxCell id="WIyWlLk6GJQsqaUBKTNV-0" />
        <mxCell id="WIyWlLk6GJQsqaUBKTNV-1" parent="WIyWlLk6GJQsqaUBKTNV-0" />
        <mxCell id="VdGend4KMwtWfdQaXtKe-26" style="edgeStyle=orthogonalEdgeStyle;rounded=0;orthogonalLoop=1;jettySize=auto;html=1;entryX=0.5;entryY=1;entryDx=0;entryDy=0;endArrow=block;endFill=0;endSize=10;strokeWidth=2;" parent="WIyWlLk6GJQsqaUBKTNV-1" source="zkfFHV4jXpPFQw0GAbJ--0" target="VdGend4KMwtWfdQaXtKe-0" edge="1">
          <mxGeometry relative="1" as="geometry" />
        </mxCell>
        <mxCell id="zkfFHV4jXpPFQw0GAbJ--0" value="ClassSensor" style="swimlane;fontStyle=0;align=center;verticalAlign=top;childLayout=stackLayout;horizontal=1;startSize=26;horizontalStack=0;resizeParent=1;resizeLast=0;collapsible=1;marginBottom=0;rounded=0;shadow=0;strokeWidth=2;fontSize=14;" parent="WIyWlLk6GJQsqaUBKTNV-1" vertex="1">
          <mxGeometry x="80" y="-40" width="295" height="702" as="geometry">
            <mxRectangle x="255" y="50" width="160" height="26" as="alternateBounds" />
          </mxGeometry>
        </mxCell>
        <mxCell id="p_wmDuGnPqayyqwFsXJJ-16" value="- _Channels: ClassChannel[]" style="text;align=left;verticalAlign=top;spacingLeft=4;spacingRight=4;overflow=hidden;rotatable=0;points=[[0,0.5],[1,0.5]];portConstraint=eastwest;fontStyle=0;fontSize=14;" parent="zkfFHV4jXpPFQw0GAbJ--0" vertex="1">
          <mxGeometry y="26" width="295" height="26" as="geometry" />
        </mxCell>
        <mxCell id="CfD3cOMl3CcCKNfadBa6-1" value="- _ChStatus: Number[]" style="text;align=left;verticalAlign=top;spacingLeft=4;spacingRight=4;overflow=hidden;rotatable=0;points=[[0,0.5],[1,0.5]];portConstraint=eastwest;fontStyle=0;fontSize=14;" parent="zkfFHV4jXpPFQw0GAbJ--0" vertex="1">
          <mxGeometry y="52" width="295" height="26" as="geometry" />
        </mxCell>
        <mxCell id="zkfFHV4jXpPFQw0GAbJ--4" value="" style="line;html=1;strokeWidth=1;align=left;verticalAlign=middle;spacingTop=-1;spacingLeft=3;spacingRight=3;rotatable=0;labelPosition=right;points=[];portConstraint=eastwest;fontSize=14;" parent="zkfFHV4jXpPFQw0GAbJ--0" vertex="1">
          <mxGeometry y="78" width="295" height="8" as="geometry" />
        </mxCell>
        <mxCell id="E-N87BtzdzfuAgRRB8JX-2" value="+ ID(): string&#xa;" style="text;align=left;verticalAlign=top;spacingLeft=4;spacingRight=4;overflow=hidden;rotatable=0;points=[[0,0.5],[1,0.5]];portConstraint=eastwest;fontSize=14;" parent="zkfFHV4jXpPFQw0GAbJ--0" vertex="1">
          <mxGeometry y="86" width="295" height="30" as="geometry" />
        </mxCell>
        <mxCell id="xuDR9B5NGAr7ZHZ0a5-C-33" value="+ CountChannels(): Number&#xa;" style="text;align=left;verticalAlign=top;spacingLeft=4;spacingRight=4;overflow=hidden;rotatable=0;points=[[0,0.5],[1,0.5]];portConstraint=eastwest;fontSize=14;" parent="zkfFHV4jXpPFQw0GAbJ--0" vertex="1">
          <mxGeometry y="116" width="295" height="30" as="geometry" />
        </mxCell>
        <mxCell id="zkfFHV4jXpPFQw0GAbJ--5" value="+ GetChannel(in Number):ClassChannelSensor&#xa;" style="text;align=left;verticalAlign=top;spacingLeft=4;spacingRight=4;overflow=hidden;rotatable=0;points=[[0,0.5],[1,0.5]];portConstraint=eastwest;fontSize=14;" parent="zkfFHV4jXpPFQw0GAbJ--0" vertex="1">
          <mxGeometry y="146" width="295" height="40" as="geometry" />
        </mxCell>
        <mxCell id="xuDR9B5NGAr7ZHZ0a5-C-5" value="+ Init(_opts)" style="text;align=left;verticalAlign=top;spacingLeft=4;spacingRight=4;overflow=hidden;rotatable=0;points=[[0,0.5],[1,0.5]];portConstraint=eastwest;fontSize=14;" parent="zkfFHV4jXpPFQw0GAbJ--0" vertex="1">
          <mxGeometry y="186" width="295" height="42" as="geometry" />
        </mxCell>
        <mxCell id="xuDR9B5NGAr7ZHZ0a5-C-6" value="+ Start(_ch_num, _period, _opts)" style="text;align=left;verticalAlign=top;spacingLeft=4;spacingRight=4;overflow=hidden;rotatable=0;points=[[0,0.5],[1,0.5]];portConstraint=eastwest;fontSize=14;" parent="zkfFHV4jXpPFQw0GAbJ--0" vertex="1">
          <mxGeometry y="228" width="295" height="40" as="geometry" />
        </mxCell>
        <mxCell id="xuDR9B5NGAr7ZHZ0a5-C-7" value="+ Stop(_ch_num)" style="text;align=left;verticalAlign=top;spacingLeft=4;spacingRight=4;overflow=hidden;rotatable=0;points=[[0,0.5],[1,0.5]];portConstraint=eastwest;fontSize=14;" parent="zkfFHV4jXpPFQw0GAbJ--0" vertex="1">
          <mxGeometry y="268" width="295" height="30" as="geometry" />
        </mxCell>
        <mxCell id="xuDR9B5NGAr7ZHZ0a5-C-8" value="+ ChangeFrequency(_ch_num, _period)" style="text;align=left;verticalAlign=top;spacingLeft=4;spacingRight=4;overflow=hidden;rotatable=0;points=[[0,0.5],[1,0.5]];portConstraint=eastwest;fontSize=14;" parent="zkfFHV4jXpPFQw0GAbJ--0" vertex="1">
          <mxGeometry y="298" width="295" height="40" as="geometry" />
        </mxCell>
        <mxCell id="xuDR9B5NGAr7ZHZ0a5-C-9" value="+ Configure(_chNum, _opts)" style="text;align=left;verticalAlign=top;spacingLeft=4;spacingRight=4;overflow=hidden;rotatable=0;points=[[0,0.5],[1,0.5]];portConstraint=eastwest;fontSize=14;" parent="zkfFHV4jXpPFQw0GAbJ--0" vertex="1">
          <mxGeometry y="338" width="295" height="40" as="geometry" />
        </mxCell>
        <mxCell id="xuDR9B5NGAr7ZHZ0a5-C-10" value="+ Reset(_chNum, _opts)" style="text;align=left;verticalAlign=top;spacingLeft=4;spacingRight=4;overflow=hidden;rotatable=0;points=[[0,0.5],[1,0.5]];portConstraint=eastwest;fontSize=14;" parent="zkfFHV4jXpPFQw0GAbJ--0" vertex="1">
          <mxGeometry y="378" width="295" height="40" as="geometry" />
        </mxCell>
        <mxCell id="xuDR9B5NGAr7ZHZ0a5-C-11" value="+ GetInfo(_ch_num)" style="text;align=left;verticalAlign=top;spacingLeft=4;spacingRight=4;overflow=hidden;rotatable=0;points=[[0,0.5],[1,0.5]];portConstraint=eastwest;fontSize=14;" parent="zkfFHV4jXpPFQw0GAbJ--0" vertex="1">
          <mxGeometry y="418" width="295" height="40" as="geometry" />
        </mxCell>
        <mxCell id="xuDR9B5NGAr7ZHZ0a5-C-31" value="+ SetRepeatability(_chNum, _rep)" style="text;align=left;verticalAlign=top;spacingLeft=4;spacingRight=4;overflow=hidden;rotatable=0;points=[[0,0.5],[1,0.5]];portConstraint=eastwest;fontSize=14;" parent="zkfFHV4jXpPFQw0GAbJ--0" vertex="1">
          <mxGeometry y="458" width="295" height="40" as="geometry" />
        </mxCell>
        <mxCell id="xuDR9B5NGAr7ZHZ0a5-C-32" value="+ SetPrecision(_chNum, _pres)" style="text;align=left;verticalAlign=top;spacingLeft=4;spacingRight=4;overflow=hidden;rotatable=0;points=[[0,0.5],[1,0.5]];portConstraint=eastwest;fontSize=14;" parent="zkfFHV4jXpPFQw0GAbJ--0" vertex="1">
          <mxGeometry y="498" width="295" height="40" as="geometry" />
        </mxCell>
        <mxCell id="xuDR9B5NGAr7ZHZ0a5-C-28" value="+ Read(reg)" style="text;align=left;verticalAlign=top;spacingLeft=4;spacingRight=4;overflow=hidden;rotatable=0;points=[[0,0.5],[1,0.5]];portConstraint=eastwest;fontSize=14;" parent="zkfFHV4jXpPFQw0GAbJ--0" vertex="1">
          <mxGeometry y="538" width="295" height="40" as="geometry" />
        </mxCell>
        <mxCell id="xuDR9B5NGAr7ZHZ0a5-C-29" value="+ Write(reg, val)" style="text;align=left;verticalAlign=top;spacingLeft=4;spacingRight=4;overflow=hidden;rotatable=0;points=[[0,0.5],[1,0.5]];portConstraint=eastwest;fontSize=14;" parent="zkfFHV4jXpPFQw0GAbJ--0" vertex="1">
          <mxGeometry y="578" width="295" height="40" as="geometry" />
        </mxCell>
        <mxCell id="_1PPHj7tY8kv_Qj92-Xa-4" style="edgeStyle=orthogonalEdgeStyle;rounded=0;orthogonalLoop=1;jettySize=auto;html=1;dashed=1;endArrow=open;endFill=0;strokeWidth=2;entryX=1;entryY=0.25;entryDx=0;entryDy=0;exitX=0.5;exitY=0;exitDx=0;exitDy=0;endSize=10;" parent="WIyWlLk6GJQsqaUBKTNV-1" source="p_wmDuGnPqayyqwFsXJJ-8" target="RYA0Mt0scuIHqQdT-V3b-5" edge="1">
          <mxGeometry relative="1" as="geometry">
            <mxPoint x="385" y="599" as="targetPoint" />
            <Array as="points">
              <mxPoint x="668" y="-70" />
              <mxPoint x="448" y="-70" />
              <mxPoint x="448" y="730" />
              <mxPoint x="375" y="730" />
            </Array>
          </mxGeometry>
        </mxCell>
        <mxCell id="p_wmDuGnPqayyqwFsXJJ-8" value="ClassChannelSensor" style="swimlane;fontStyle=0;align=center;verticalAlign=top;childLayout=stackLayout;horizontal=1;startSize=26;horizontalStack=0;resizeParent=1;resizeLast=0;collapsible=1;marginBottom=0;rounded=0;shadow=0;strokeWidth=2;fontSize=14;" parent="WIyWlLk6GJQsqaUBKTNV-1" vertex="1">
          <mxGeometry x="520" y="-10" width="295" height="722" as="geometry">
            <mxRectangle x="255" y="820" width="160" height="26" as="alternateBounds" />
          </mxGeometry>
        </mxCell>
        <mxCell id="E-N87BtzdzfuAgRRB8JX-33" value="- _Value: Number" style="text;align=left;verticalAlign=top;spacingLeft=4;spacingRight=4;overflow=hidden;rotatable=0;points=[[0,0.5],[1,0.5]];portConstraint=eastwest;rounded=0;shadow=0;html=0;fontSize=14;" parent="p_wmDuGnPqayyqwFsXJJ-8" vertex="1">
          <mxGeometry y="26" width="295" height="26" as="geometry" />
        </mxCell>
        <mxCell id="bvbgQUxQ6xvuqOkQmt7E-0" value="- _ValueBuffer: Object" style="text;align=left;verticalAlign=top;spacingLeft=4;spacingRight=4;overflow=hidden;rotatable=0;points=[[0,0.5],[1,0.5]];portConstraint=eastwest;rounded=0;shadow=0;html=0;fontSize=14;" parent="p_wmDuGnPqayyqwFsXJJ-8" vertex="1">
          <mxGeometry y="52" width="295" height="26" as="geometry" />
        </mxCell>
        <mxCell id="p_wmDuGnPqayyqwFsXJJ-15" value="- _ChNum: Number" style="text;align=left;verticalAlign=top;spacingLeft=4;spacingRight=4;overflow=hidden;rotatable=0;points=[[0,0.5],[1,0.5]];portConstraint=eastwest;rounded=0;shadow=0;html=0;fontSize=14;" parent="p_wmDuGnPqayyqwFsXJJ-8" vertex="1">
          <mxGeometry y="78" width="295" height="26" as="geometry" />
        </mxCell>
        <mxCell id="p_wmDuGnPqayyqwFsXJJ-14" value="- _Sensor: ClassSensor" style="text;align=left;verticalAlign=top;spacingLeft=4;spacingRight=4;overflow=hidden;rotatable=0;points=[[0,0.5],[1,0.5]];portConstraint=eastwest;rounded=0;shadow=0;html=0;fontSize=14;" parent="p_wmDuGnPqayyqwFsXJJ-8" vertex="1">
          <mxGeometry y="104" width="295" height="26" as="geometry" />
        </mxCell>
        <mxCell id="_1PPHj7tY8kv_Qj92-Xa-39" value="- _Transform: ClassTransform" style="text;align=left;verticalAlign=top;spacingLeft=4;spacingRight=4;overflow=hidden;rotatable=0;points=[[0,0.5],[1,0.5]];portConstraint=eastwest;rounded=0;shadow=0;html=0;fontSize=14;" parent="p_wmDuGnPqayyqwFsXJJ-8" vertex="1">
          <mxGeometry y="130" width="295" height="26" as="geometry" />
        </mxCell>
        <mxCell id="Y1Nx8zhn-KU8UPs55CAr-10" value="- _Filter: ClassFilter" style="text;align=left;verticalAlign=top;spacingLeft=4;spacingRight=4;overflow=hidden;rotatable=0;points=[[0,0.5],[1,0.5]];portConstraint=eastwest;rounded=0;shadow=0;html=0;fontSize=14;" vertex="1" parent="p_wmDuGnPqayyqwFsXJJ-8">
          <mxGeometry y="156" width="295" height="26" as="geometry" />
        </mxCell>
        <mxCell id="E-N87BtzdzfuAgRRB8JX-5" value="- _Suppression: ClassSuppression" style="text;align=left;verticalAlign=top;spacingLeft=4;spacingRight=4;overflow=hidden;rotatable=0;points=[[0,0.5],[1,0.5]];portConstraint=eastwest;rounded=0;shadow=0;html=0;fontSize=14;" parent="p_wmDuGnPqayyqwFsXJJ-8" vertex="1">
          <mxGeometry y="182" width="295" height="26" as="geometry" />
        </mxCell>
        <mxCell id="_1PPHj7tY8kv_Qj92-Xa-40" value="- _Alarms: Alarms" style="text;align=left;verticalAlign=top;spacingLeft=4;spacingRight=4;overflow=hidden;rotatable=0;points=[[0,0.5],[1,0.5]];portConstraint=eastwest;rounded=0;shadow=0;html=0;fontSize=14;" parent="p_wmDuGnPqayyqwFsXJJ-8" vertex="1">
          <mxGeometry y="208" width="295" height="26" as="geometry" />
        </mxCell>
        <mxCell id="E-N87BtzdzfuAgRRB8JX-31" value="- _DataUpdated: Boolean" style="text;align=left;verticalAlign=top;spacingLeft=4;spacingRight=4;overflow=hidden;rotatable=0;points=[[0,0.5],[1,0.5]];portConstraint=eastwest;rounded=0;shadow=0;html=0;fontSize=14;" parent="p_wmDuGnPqayyqwFsXJJ-8" vertex="1">
          <mxGeometry y="234" width="295" height="26" as="geometry" />
        </mxCell>
        <mxCell id="E-N87BtzdzfuAgRRB8JX-32" value="- _DataWasRead: Boolean" style="text;align=left;verticalAlign=top;spacingLeft=4;spacingRight=4;overflow=hidden;rotatable=0;points=[[0,0.5],[1,0.5]];portConstraint=eastwest;rounded=0;shadow=0;html=0;fontSize=14;" parent="p_wmDuGnPqayyqwFsXJJ-8" vertex="1">
          <mxGeometry y="260" width="295" height="26" as="geometry" />
        </mxCell>
        <mxCell id="p_wmDuGnPqayyqwFsXJJ-11" value="" style="line;html=1;strokeWidth=1;align=left;verticalAlign=middle;spacingTop=-1;spacingLeft=3;spacingRight=3;rotatable=0;labelPosition=right;points=[];portConstraint=eastwest;fontSize=14;" parent="p_wmDuGnPqayyqwFsXJJ-8" vertex="1">
          <mxGeometry y="286" width="295" height="8" as="geometry" />
        </mxCell>
        <mxCell id="VdGend4KMwtWfdQaXtKe-49" value="+ Value: Number&#xa;" style="text;align=left;verticalAlign=top;spacingLeft=4;spacingRight=4;overflow=hidden;rotatable=0;points=[[0,0.5],[1,0.5]];portConstraint=eastwest;rounded=0;shadow=0;html=0;fontSize=14;" parent="p_wmDuGnPqayyqwFsXJJ-8" vertex="1">
          <mxGeometry y="294" width="295" height="26" as="geometry" />
        </mxCell>
        <mxCell id="_1PPHj7tY8kv_Qj92-Xa-5" value="+ ID: String&#xa;" style="text;align=left;verticalAlign=top;spacingLeft=4;spacingRight=4;overflow=hidden;rotatable=0;points=[[0,0.5],[1,0.5]];portConstraint=eastwest;rounded=0;shadow=0;html=0;fontSize=14;" parent="p_wmDuGnPqayyqwFsXJJ-8" vertex="1">
          <mxGeometry y="320" width="295" height="26" as="geometry" />
        </mxCell>
        <mxCell id="CfD3cOMl3CcCKNfadBa6-0" value="+ Status: Number&#xa;" style="text;align=left;verticalAlign=top;spacingLeft=4;spacingRight=4;overflow=hidden;rotatable=0;points=[[0,0.5],[1,0.5]];portConstraint=eastwest;rounded=0;shadow=0;html=0;fontSize=14;" parent="p_wmDuGnPqayyqwFsXJJ-8" vertex="1">
          <mxGeometry y="346" width="295" height="26" as="geometry" />
        </mxCell>
        <mxCell id="E-N87BtzdzfuAgRRB8JX-6" value="+ ChangeThreshold(_val)&#xa;" style="text;align=left;verticalAlign=top;spacingLeft=4;spacingRight=4;overflow=hidden;rotatable=0;points=[[0,0.5],[1,0.5]];portConstraint=eastwest;rounded=0;shadow=0;html=0;fontSize=14;" parent="p_wmDuGnPqayyqwFsXJJ-8" vertex="1">
          <mxGeometry y="372" width="295" height="26" as="geometry" />
        </mxCell>
        <mxCell id="RYA0Mt0scuIHqQdT-V3b-1" value="+ SetAvgCapacity(_cap)" style="text;align=left;verticalAlign=top;spacingLeft=4;spacingRight=4;overflow=hidden;rotatable=0;points=[[0,0.5],[1,0.5]];portConstraint=eastwest;fontSize=14;" parent="p_wmDuGnPqayyqwFsXJJ-8" vertex="1">
          <mxGeometry y="398" width="295" height="30" as="geometry" />
        </mxCell>
        <mxCell id="E-N87BtzdzfuAgRRB8JX-27" value="+ ClearBuffer()" style="text;align=left;verticalAlign=top;spacingLeft=4;spacingRight=4;overflow=hidden;rotatable=0;points=[[0,0.5],[1,0.5]];portConstraint=eastwest;fontSize=14;" parent="p_wmDuGnPqayyqwFsXJJ-8" vertex="1">
          <mxGeometry y="428" width="295" height="30" as="geometry" />
        </mxCell>
        <mxCell id="bvbgQUxQ6xvuqOkQmt7E-3" value="+ EnableAlarms()" style="text;align=left;verticalAlign=top;spacingLeft=4;spacingRight=4;overflow=hidden;rotatable=0;points=[[0,0.5],[1,0.5]];portConstraint=eastwest;fontSize=14;" parent="p_wmDuGnPqayyqwFsXJJ-8" vertex="1">
          <mxGeometry y="458" width="295" height="26" as="geometry" />
        </mxCell>
        <mxCell id="xuDR9B5NGAr7ZHZ0a5-C-19" value="+ Start(period, _opts)" style="text;align=left;verticalAlign=top;spacingLeft=4;spacingRight=4;overflow=hidden;rotatable=0;points=[[0,0.5],[1,0.5]];portConstraint=eastwest;fontSize=14;" parent="p_wmDuGnPqayyqwFsXJJ-8" vertex="1">
          <mxGeometry y="484" width="295" height="26" as="geometry" />
        </mxCell>
        <mxCell id="xuDR9B5NGAr7ZHZ0a5-C-20" value="+ Stop()" style="text;align=left;verticalAlign=top;spacingLeft=4;spacingRight=4;overflow=hidden;rotatable=0;points=[[0,0.5],[1,0.5]];portConstraint=eastwest;fontSize=14;" parent="p_wmDuGnPqayyqwFsXJJ-8" vertex="1">
          <mxGeometry y="510" width="295" height="26" as="geometry" />
        </mxCell>
        <mxCell id="xuDR9B5NGAr7ZHZ0a5-C-21" value="+ ChangeFrequency(_period)" style="text;align=left;verticalAlign=top;spacingLeft=4;spacingRight=4;overflow=hidden;rotatable=0;points=[[0,0.5],[1,0.5]];portConstraint=eastwest;fontSize=14;" parent="p_wmDuGnPqayyqwFsXJJ-8" vertex="1">
          <mxGeometry y="536" width="295" height="26" as="geometry" />
        </mxCell>
        <mxCell id="RYA0Mt0scuIHqQdT-V3b-15" value="+ GetInfo()" style="text;align=left;verticalAlign=top;spacingLeft=4;spacingRight=4;overflow=hidden;rotatable=0;points=[[0,0.5],[1,0.5]];portConstraint=eastwest;fontSize=14;" parent="p_wmDuGnPqayyqwFsXJJ-8" vertex="1">
          <mxGeometry y="562" width="295" height="26" as="geometry" />
        </mxCell>
        <mxCell id="xuDR9B5NGAr7ZHZ0a5-C-22" value="+ Configure(_opts)" style="text;align=left;verticalAlign=top;spacingLeft=4;spacingRight=4;overflow=hidden;rotatable=0;points=[[0,0.5],[1,0.5]];portConstraint=eastwest;fontSize=14;" parent="p_wmDuGnPqayyqwFsXJJ-8" vertex="1">
          <mxGeometry y="588" width="295" height="26" as="geometry" />
        </mxCell>
        <mxCell id="xuDR9B5NGAr7ZHZ0a5-C-23" value="+ Reset()" style="text;align=left;verticalAlign=top;spacingLeft=4;spacingRight=4;overflow=hidden;rotatable=0;points=[[0,0.5],[1,0.5]];portConstraint=eastwest;fontSize=14;" parent="p_wmDuGnPqayyqwFsXJJ-8" vertex="1">
          <mxGeometry y="614" width="295" height="26" as="geometry" />
        </mxCell>
        <mxCell id="E-N87BtzdzfuAgRRB8JX-30" value="+ SetRepeatability(_rep)" style="text;align=left;verticalAlign=top;spacingLeft=4;spacingRight=4;overflow=hidden;rotatable=0;points=[[0,0.5],[1,0.5]];portConstraint=eastwest;fontSize=14;" parent="p_wmDuGnPqayyqwFsXJJ-8" vertex="1">
          <mxGeometry y="640" width="295" height="26" as="geometry" />
        </mxCell>
        <mxCell id="E-N87BtzdzfuAgRRB8JX-29" value="+ SetPrecision(_pres)" style="text;align=left;verticalAlign=top;spacingLeft=4;spacingRight=4;overflow=hidden;rotatable=0;points=[[0,0.5],[1,0.5]];portConstraint=eastwest;fontSize=14;" parent="p_wmDuGnPqayyqwFsXJJ-8" vertex="1">
          <mxGeometry y="666" width="295" height="26" as="geometry" />
        </mxCell>
        <mxCell id="_1PPHj7tY8kv_Qj92-Xa-42" style="edgeStyle=orthogonalEdgeStyle;rounded=0;orthogonalLoop=1;jettySize=auto;html=1;endArrow=diamondThin;endFill=1;strokeWidth=2;jumpSize=10;endSize=10;startSize=10;" parent="WIyWlLk6GJQsqaUBKTNV-1" source="p_wmDuGnPqayyqwFsXJJ-52" target="E-N87BtzdzfuAgRRB8JX-5" edge="1">
          <mxGeometry relative="1" as="geometry" />
        </mxCell>
        <mxCell id="p_wmDuGnPqayyqwFsXJJ-52" value="&lt;span style=&quot;font-weight: 400; font-size: 14px;&quot;&gt;ClassSuppression&lt;/span&gt;" style="swimlane;fontStyle=1;align=center;verticalAlign=top;childLayout=stackLayout;horizontal=1;startSize=26;horizontalStack=0;resizeParent=1;resizeParentMax=0;resizeLast=0;collapsible=1;marginBottom=0;whiteSpace=wrap;html=1;fontSize=14;strokeWidth=2;" parent="WIyWlLk6GJQsqaUBKTNV-1" vertex="1">
          <mxGeometry x="1175" y="300" width="230" height="180" as="geometry">
            <mxRectangle x="770" y="698" width="70" height="30" as="alternateBounds" />
          </mxGeometry>
        </mxCell>
        <mxCell id="p_wmDuGnPqayyqwFsXJJ-53" value="- _LimLow: number" style="text;strokeColor=none;fillColor=none;align=left;verticalAlign=top;spacingLeft=4;spacingRight=4;overflow=hidden;rotatable=0;points=[[0,0.5],[1,0.5]];portConstraint=eastwest;whiteSpace=wrap;html=1;fontSize=14;" parent="p_wmDuGnPqayyqwFsXJJ-52" vertex="1">
          <mxGeometry y="26" width="230" height="26" as="geometry" />
        </mxCell>
        <mxCell id="E-N87BtzdzfuAgRRB8JX-34" value="- _LimHigh: number" style="text;strokeColor=none;fillColor=none;align=left;verticalAlign=top;spacingLeft=4;spacingRight=4;overflow=hidden;rotatable=0;points=[[0,0.5],[1,0.5]];portConstraint=eastwest;whiteSpace=wrap;html=1;fontSize=14;" parent="p_wmDuGnPqayyqwFsXJJ-52" vertex="1">
          <mxGeometry y="52" width="230" height="26" as="geometry" />
        </mxCell>
        <mxCell id="p_wmDuGnPqayyqwFsXJJ-56" value="" style="line;strokeWidth=1;fillColor=none;align=left;verticalAlign=middle;spacingTop=-1;spacingLeft=3;spacingRight=3;rotatable=0;labelPosition=right;points=[];portConstraint=eastwest;strokeColor=inherit;fontSize=14;" parent="p_wmDuGnPqayyqwFsXJJ-52" vertex="1">
          <mxGeometry y="78" width="230" height="50" as="geometry" />
        </mxCell>
        <mxCell id="_1PPHj7tY8kv_Qj92-Xa-33" value="+ SetLim(_low, _high)" style="text;strokeColor=none;fillColor=none;align=left;verticalAlign=top;spacingLeft=4;spacingRight=4;overflow=hidden;rotatable=0;points=[[0,0.5],[1,0.5]];portConstraint=eastwest;whiteSpace=wrap;html=1;fontSize=14;" parent="p_wmDuGnPqayyqwFsXJJ-52" vertex="1">
          <mxGeometry y="128" width="230" height="26" as="geometry" />
        </mxCell>
        <mxCell id="xuDR9B5NGAr7ZHZ0a5-C-25" value="+ SuppressValue(val)" style="text;strokeColor=none;fillColor=none;align=left;verticalAlign=top;spacingLeft=4;spacingRight=4;overflow=hidden;rotatable=0;points=[[0,0.5],[1,0.5]];portConstraint=eastwest;whiteSpace=wrap;html=1;fontSize=14;" parent="p_wmDuGnPqayyqwFsXJJ-52" vertex="1">
          <mxGeometry y="154" width="230" height="26" as="geometry" />
        </mxCell>
        <mxCell id="_1PPHj7tY8kv_Qj92-Xa-41" style="edgeStyle=orthogonalEdgeStyle;rounded=0;orthogonalLoop=1;jettySize=auto;html=1;endArrow=diamondThin;endFill=1;strokeWidth=2;jumpSize=10;endSize=10;startSize=10;" parent="WIyWlLk6GJQsqaUBKTNV-1" source="p_wmDuGnPqayyqwFsXJJ-63" target="_1PPHj7tY8kv_Qj92-Xa-40" edge="1">
          <mxGeometry relative="1" as="geometry" />
        </mxCell>
        <mxCell id="p_wmDuGnPqayyqwFsXJJ-63" value="&lt;span style=&quot;font-weight: 400; font-size: 14px;&quot;&gt;ClassAlarms&lt;br style=&quot;font-size: 14px;&quot;&gt;&lt;/span&gt;" style="swimlane;fontStyle=1;align=center;verticalAlign=top;childLayout=stackLayout;horizontal=1;startSize=26;horizontalStack=0;resizeParent=1;resizeParentMax=0;resizeLast=0;collapsible=1;marginBottom=0;whiteSpace=wrap;html=1;strokeWidth=2;fontSize=14;" parent="WIyWlLk6GJQsqaUBKTNV-1" vertex="1">
          <mxGeometry x="889" y="300" width="230" height="294" as="geometry" />
        </mxCell>
        <mxCell id="xuDR9B5NGAr7ZHZ0a5-C-4" value="- _Channel: ClassChannelSensor" style="text;strokeColor=none;fillColor=none;align=left;verticalAlign=top;spacingLeft=4;spacingRight=4;overflow=hidden;rotatable=0;points=[[0,0.5],[1,0.5]];portConstraint=eastwest;whiteSpace=wrap;html=1;fontSize=14;" parent="p_wmDuGnPqayyqwFsXJJ-63" vertex="1">
          <mxGeometry y="26" width="230" height="26" as="geometry" />
        </mxCell>
        <mxCell id="p_wmDuGnPqayyqwFsXJJ-64" value="- _Zones: Number[]" style="text;strokeColor=none;fillColor=none;align=left;verticalAlign=top;spacingLeft=4;spacingRight=4;overflow=hidden;rotatable=0;points=[[0,0.5],[1,0.5]];portConstraint=eastwest;whiteSpace=wrap;html=1;fontSize=14;" parent="p_wmDuGnPqayyqwFsXJJ-63" vertex="1">
          <mxGeometry y="52" width="230" height="26" as="geometry" />
        </mxCell>
        <mxCell id="RYA0Mt0scuIHqQdT-V3b-2" value="- _Callbacks: Func[]" style="text;strokeColor=none;fillColor=none;align=left;verticalAlign=top;spacingLeft=4;spacingRight=4;overflow=hidden;rotatable=0;points=[[0,0.5],[1,0.5]];portConstraint=eastwest;whiteSpace=wrap;html=1;fontSize=14;" parent="p_wmDuGnPqayyqwFsXJJ-63" vertex="1">
          <mxGeometry y="78" width="230" height="26" as="geometry" />
        </mxCell>
        <mxCell id="_1PPHj7tY8kv_Qj92-Xa-18" value="- _CurrZone: String" style="text;strokeColor=none;fillColor=none;align=left;verticalAlign=top;spacingLeft=4;spacingRight=4;overflow=hidden;rotatable=0;points=[[0,0.5],[1,0.5]];portConstraint=eastwest;whiteSpace=wrap;html=1;fontSize=14;" parent="p_wmDuGnPqayyqwFsXJJ-63" vertex="1">
          <mxGeometry y="104" width="230" height="26" as="geometry" />
        </mxCell>
        <mxCell id="p_wmDuGnPqayyqwFsXJJ-66" value="" style="line;strokeWidth=1;fillColor=none;align=left;verticalAlign=middle;spacingTop=-1;spacingLeft=3;spacingRight=3;rotatable=0;labelPosition=right;points=[];portConstraint=eastwest;strokeColor=inherit;" parent="p_wmDuGnPqayyqwFsXJJ-63" vertex="1">
          <mxGeometry y="130" width="230" height="34" as="geometry" />
        </mxCell>
        <mxCell id="bvbgQUxQ6xvuqOkQmt7E-1" value="+ SetDefault(): void" style="text;strokeColor=none;fillColor=none;align=left;verticalAlign=top;spacingLeft=4;spacingRight=4;overflow=hidden;rotatable=0;points=[[0,0.5],[1,0.5]];portConstraint=eastwest;whiteSpace=wrap;html=1;fontSize=14;" parent="p_wmDuGnPqayyqwFsXJJ-63" vertex="1">
          <mxGeometry y="164" width="230" height="26" as="geometry" />
        </mxCell>
        <mxCell id="_1PPHj7tY8kv_Qj92-Xa-43" value="+ CheckZone(in Number): void" style="text;strokeColor=none;fillColor=none;align=left;verticalAlign=top;spacingLeft=4;spacingRight=4;overflow=hidden;rotatable=0;points=[[0,0.5],[1,0.5]];portConstraint=eastwest;whiteSpace=wrap;html=1;fontSize=14;" parent="p_wmDuGnPqayyqwFsXJJ-63" vertex="1">
          <mxGeometry y="190" width="230" height="26" as="geometry" />
        </mxCell>
        <mxCell id="E-N87BtzdzfuAgRRB8JX-45" value="+ CheckOpts(_opts): void" style="text;strokeColor=none;fillColor=none;align=left;verticalAlign=top;spacingLeft=4;spacingRight=4;overflow=hidden;rotatable=0;points=[[0,0.5],[1,0.5]];portConstraint=eastwest;whiteSpace=wrap;html=1;fontSize=14;" parent="p_wmDuGnPqayyqwFsXJJ-63" vertex="1">
          <mxGeometry y="216" width="230" height="26" as="geometry" />
        </mxCell>
        <mxCell id="_1PPHj7tY8kv_Qj92-Xa-27" value="+ SetZones(_opts)" style="text;strokeColor=none;fillColor=none;align=left;verticalAlign=top;spacingLeft=4;spacingRight=4;overflow=hidden;rotatable=0;points=[[0,0.5],[1,0.5]];portConstraint=eastwest;whiteSpace=wrap;html=1;fontSize=14;" parent="p_wmDuGnPqayyqwFsXJJ-63" vertex="1">
          <mxGeometry y="242" width="230" height="26" as="geometry" />
        </mxCell>
        <mxCell id="E-N87BtzdzfuAgRRB8JX-48" value="+ SetCallback(_ind, _cb)" style="text;strokeColor=none;fillColor=none;align=left;verticalAlign=top;spacingLeft=4;spacingRight=4;overflow=hidden;rotatable=0;points=[[0,0.5],[1,0.5]];portConstraint=eastwest;whiteSpace=wrap;html=1;fontSize=14;" parent="p_wmDuGnPqayyqwFsXJJ-63" vertex="1">
          <mxGeometry y="268" width="230" height="26" as="geometry" />
        </mxCell>
        <mxCell id="VdGend4KMwtWfdQaXtKe-0" value="ClassBaseSensor" style="swimlane;fontStyle=0;align=center;verticalAlign=top;childLayout=stackLayout;horizontal=1;startSize=26;horizontalStack=0;resizeParent=1;resizeLast=0;collapsible=1;marginBottom=0;rounded=0;shadow=0;strokeWidth=2;fontSize=14;" parent="WIyWlLk6GJQsqaUBKTNV-1" vertex="1">
          <mxGeometry x="80" y="-442" width="295" height="352" as="geometry">
            <mxRectangle x="255" y="-440" width="160" height="26" as="alternateBounds" />
          </mxGeometry>
        </mxCell>
        <mxCell id="xuDR9B5NGAr7ZHZ0a5-C-13" value="- _Bus" style="text;strokeColor=none;fillColor=none;align=left;verticalAlign=top;spacingLeft=4;spacingRight=4;overflow=hidden;rotatable=0;points=[[0,0.5],[1,0.5]];portConstraint=eastwest;whiteSpace=wrap;html=1;fontSize=14;" parent="VdGend4KMwtWfdQaXtKe-0" vertex="1">
          <mxGeometry y="26" width="295" height="30" as="geometry" />
        </mxCell>
        <mxCell id="xuDR9B5NGAr7ZHZ0a5-C-14" value="- _Pins: Pin[]" style="text;strokeColor=none;fillColor=none;align=left;verticalAlign=top;spacingLeft=4;spacingRight=4;overflow=hidden;rotatable=0;points=[[0,0.5],[1,0.5]];portConstraint=eastwest;whiteSpace=wrap;html=1;fontSize=14;" parent="VdGend4KMwtWfdQaXtKe-0" vertex="1">
          <mxGeometry y="56" width="295" height="26" as="geometry" />
        </mxCell>
        <mxCell id="CfD3cOMl3CcCKNfadBa6-30" value="- _Address: Number" style="text;strokeColor=none;fillColor=none;align=left;verticalAlign=top;spacingLeft=4;spacingRight=4;overflow=hidden;rotatable=0;points=[[0,0.5],[1,0.5]];portConstraint=eastwest;whiteSpace=wrap;html=1;fontSize=14;" parent="VdGend4KMwtWfdQaXtKe-0" vertex="1">
          <mxGeometry y="82" width="295" height="26" as="geometry" />
        </mxCell>
        <mxCell id="E-N87BtzdzfuAgRRB8JX-0" value="- _Precision&lt;span style=&quot;color: rgba(0, 0, 0, 0); font-family: monospace; font-size: 0px; text-wrap: nowrap;&quot;&gt;%3CmxGraphModel%3E%3Croot%3E%3CmxCell%20id%3D%220%22%2F%3E%3CmxCell%20id%3D%221%22%20parent%3D%220%22%2F%3E%3CmxCell%20id%3D%222%22%20value%3D%22-%20_Address%3A%20Number%22%20style%3D%22text%3BstrokeColor%3Dnone%3BfillColor%3Dnone%3Balign%3Dleft%3BverticalAlign%3Dtop%3BspacingLeft%3D4%3BspacingRight%3D4%3Boverflow%3Dhidden%3Brotatable%3D0%3Bpoints%3D%5B%5B0%2C0.5%5D%2C%5B1%2C0.5%5D%5D%3BportConstraint%3Deastwest%3BwhiteSpace%3Dwrap%3Bhtml%3D1%3BfontSize%3D14%3B%22%20vertex%3D%221%22%20parent%3D%221%22%3E%3CmxGeometry%20x%3D%2280%22%20y%3D%22-360%22%20width%3D%22295%22%20height%3D%2226%22%20as%3D%22geometry%22%2F%3E%3C%2FmxCell%3E%3C%2Froot%3E%3C%2FmxGraphModel%3E&lt;/span&gt;" style="text;strokeColor=none;fillColor=none;align=left;verticalAlign=top;spacingLeft=4;spacingRight=4;overflow=hidden;rotatable=0;points=[[0,0.5],[1,0.5]];portConstraint=eastwest;whiteSpace=wrap;html=1;fontSize=14;" parent="VdGend4KMwtWfdQaXtKe-0" vertex="1">
          <mxGeometry y="108" width="295" height="26" as="geometry" />
        </mxCell>
        <mxCell id="E-N87BtzdzfuAgRRB8JX-1" value="- _Repeatability" style="text;strokeColor=none;fillColor=none;align=left;verticalAlign=top;spacingLeft=4;spacingRight=4;overflow=hidden;rotatable=0;points=[[0,0.5],[1,0.5]];portConstraint=eastwest;whiteSpace=wrap;html=1;fontSize=14;" parent="VdGend4KMwtWfdQaXtKe-0" vertex="1">
          <mxGeometry y="134" width="295" height="26" as="geometry" />
        </mxCell>
        <mxCell id="E-N87BtzdzfuAgRRB8JX-3" value="- _Id: string" style="text;strokeColor=none;fillColor=none;align=left;verticalAlign=top;spacingLeft=4;spacingRight=4;overflow=hidden;rotatable=0;points=[[0,0.5],[1,0.5]];portConstraint=eastwest;whiteSpace=wrap;html=1;fontSize=14;" parent="VdGend4KMwtWfdQaXtKe-0" vertex="1">
          <mxGeometry y="160" width="295" height="26" as="geometry" />
        </mxCell>
        <mxCell id="E-N87BtzdzfuAgRRB8JX-4" value="- _Article: string" style="text;strokeColor=none;fillColor=none;align=left;verticalAlign=top;spacingLeft=4;spacingRight=4;overflow=hidden;rotatable=0;points=[[0,0.5],[1,0.5]];portConstraint=eastwest;whiteSpace=wrap;html=1;fontSize=14;" parent="VdGend4KMwtWfdQaXtKe-0" vertex="1">
          <mxGeometry y="186" width="295" height="26" as="geometry" />
        </mxCell>
        <mxCell id="VdGend4KMwtWfdQaXtKe-15" value="+ _Name: String" style="text;strokeColor=none;fillColor=none;align=left;verticalAlign=top;spacingLeft=4;spacingRight=4;overflow=hidden;rotatable=0;points=[[0,0.5],[1,0.5]];portConstraint=eastwest;whiteSpace=wrap;html=1;fontSize=14;" parent="VdGend4KMwtWfdQaXtKe-0" vertex="1">
          <mxGeometry y="212" width="295" height="26" as="geometry" />
        </mxCell>
        <mxCell id="VdGend4KMwtWfdQaXtKe-20" value="+ _QuantityChannel: Number" style="text;strokeColor=none;fillColor=none;align=left;verticalAlign=top;spacingLeft=4;spacingRight=4;overflow=hidden;rotatable=0;points=[[0,0.5],[1,0.5]];portConstraint=eastwest;whiteSpace=wrap;html=1;fontSize=14;" parent="VdGend4KMwtWfdQaXtKe-0" vertex="1">
          <mxGeometry y="238" width="295" height="26" as="geometry" />
        </mxCell>
        <mxCell id="_1PPHj7tY8kv_Qj92-Xa-8" value="+ _ChannelNames: String[]" style="text;strokeColor=none;fillColor=none;align=left;verticalAlign=top;spacingLeft=4;spacingRight=4;overflow=hidden;rotatable=0;points=[[0,0.5],[1,0.5]];portConstraint=eastwest;whiteSpace=wrap;html=1;fontSize=14;" parent="VdGend4KMwtWfdQaXtKe-0" vertex="1">
          <mxGeometry y="264" width="295" height="26" as="geometry" />
        </mxCell>
        <mxCell id="VdGend4KMwtWfdQaXtKe-16" value="+ _Type: String" style="text;strokeColor=none;fillColor=none;align=left;verticalAlign=top;spacingLeft=4;spacingRight=4;overflow=hidden;rotatable=0;points=[[0,0.5],[1,0.5]];portConstraint=eastwest;whiteSpace=wrap;html=1;fontSize=14;" parent="VdGend4KMwtWfdQaXtKe-0" vertex="1">
          <mxGeometry y="290" width="295" height="26" as="geometry" />
        </mxCell>
        <mxCell id="VdGend4KMwtWfdQaXtKe-5" value="" style="line;html=1;strokeWidth=1;align=left;verticalAlign=middle;spacingTop=-1;spacingLeft=3;spacingRight=3;rotatable=0;labelPosition=right;points=[];portConstraint=eastwest;fontSize=14;" parent="VdGend4KMwtWfdQaXtKe-0" vertex="1">
          <mxGeometry y="316" width="295" height="8" as="geometry" />
        </mxCell>
        <mxCell id="xuDR9B5NGAr7ZHZ0a5-C-12" value="+ CheckProps()" style="text;strokeColor=none;fillColor=none;align=left;verticalAlign=top;spacingLeft=4;spacingRight=4;overflow=hidden;rotatable=0;points=[[0,0.5],[1,0.5]];portConstraint=eastwest;whiteSpace=wrap;html=1;fontSize=14;" parent="VdGend4KMwtWfdQaXtKe-0" vertex="1">
          <mxGeometry y="324" width="295" height="26" as="geometry" />
        </mxCell>
        <mxCell id="RYA0Mt0scuIHqQdT-V3b-14" style="edgeStyle=orthogonalEdgeStyle;rounded=0;orthogonalLoop=1;jettySize=auto;html=1;exitX=0.5;exitY=0;exitDx=0;exitDy=0;endArrow=block;endFill=0;endSize=10;strokeWidth=2;" parent="WIyWlLk6GJQsqaUBKTNV-1" source="RYA0Mt0scuIHqQdT-V3b-5" target="zkfFHV4jXpPFQw0GAbJ--0" edge="1">
          <mxGeometry relative="1" as="geometry" />
        </mxCell>
        <mxCell id="RYA0Mt0scuIHqQdT-V3b-5" value="&lt;span style=&quot;font-weight: 400; font-size: 14px;&quot;&gt;ClassSomeSensor&lt;/span&gt;" style="swimlane;fontStyle=1;align=center;verticalAlign=top;childLayout=stackLayout;horizontal=1;startSize=26;horizontalStack=0;resizeParent=1;resizeParentMax=0;resizeLast=0;collapsible=1;marginBottom=0;whiteSpace=wrap;html=1;fontSize=14;strokeWidth=2;" parent="WIyWlLk6GJQsqaUBKTNV-1" vertex="1">
          <mxGeometry x="80" y="710" width="295" height="76" as="geometry">
            <mxRectangle x="640" y="440" width="70" height="30" as="alternateBounds" />
          </mxGeometry>
        </mxCell>
        <mxCell id="RYA0Mt0scuIHqQdT-V3b-8" value="" style="line;strokeWidth=1;fillColor=none;align=left;verticalAlign=middle;spacingTop=-1;spacingLeft=3;spacingRight=3;rotatable=0;labelPosition=right;points=[];portConstraint=eastwest;strokeColor=inherit;fontSize=14;" parent="RYA0Mt0scuIHqQdT-V3b-5" vertex="1">
          <mxGeometry y="26" width="295" height="50" as="geometry" />
        </mxCell>
        <mxCell id="E-N87BtzdzfuAgRRB8JX-46" style="edgeStyle=orthogonalEdgeStyle;rounded=0;orthogonalLoop=1;jettySize=auto;html=1;endArrow=diamondThin;endFill=1;strokeWidth=2;endSize=10;startSize=10;" parent="WIyWlLk6GJQsqaUBKTNV-1" source="E-N87BtzdzfuAgRRB8JX-35" target="_1PPHj7tY8kv_Qj92-Xa-39" edge="1">
          <mxGeometry relative="1" as="geometry" />
        </mxCell>
        <mxCell id="E-N87BtzdzfuAgRRB8JX-35" value="&lt;span style=&quot;font-weight: 400; font-size: 14px;&quot;&gt;ClassTransform&lt;/span&gt;" style="swimlane;fontStyle=1;align=center;verticalAlign=top;childLayout=stackLayout;horizontal=1;startSize=26;horizontalStack=0;resizeParent=1;resizeParentMax=0;resizeLast=0;collapsible=1;marginBottom=0;whiteSpace=wrap;html=1;fontSize=14;strokeWidth=2;" parent="WIyWlLk6GJQsqaUBKTNV-1" vertex="1">
          <mxGeometry x="889" y="-172" width="230" height="158" as="geometry">
            <mxRectangle x="770" y="698" width="70" height="30" as="alternateBounds" />
          </mxGeometry>
        </mxCell>
        <mxCell id="E-N87BtzdzfuAgRRB8JX-38" value="- _TransformFunc: Func" style="text;strokeColor=none;fillColor=none;align=left;verticalAlign=top;spacingLeft=4;spacingRight=4;overflow=hidden;rotatable=0;points=[[0,0.5],[1,0.5]];portConstraint=eastwest;whiteSpace=wrap;html=1;fontSize=14;" parent="E-N87BtzdzfuAgRRB8JX-35" vertex="1">
          <mxGeometry y="26" width="230" height="26" as="geometry" />
        </mxCell>
        <mxCell id="E-N87BtzdzfuAgRRB8JX-39" value="" style="line;strokeWidth=1;fillColor=none;align=left;verticalAlign=middle;spacingTop=-1;spacingLeft=3;spacingRight=3;rotatable=0;labelPosition=right;points=[];portConstraint=eastwest;strokeColor=inherit;fontSize=14;" parent="E-N87BtzdzfuAgRRB8JX-35" vertex="1">
          <mxGeometry y="52" width="230" height="28" as="geometry" />
        </mxCell>
        <mxCell id="E-N87BtzdzfuAgRRB8JX-40" value="+ SetFunc(_func)" style="text;strokeColor=none;fillColor=none;align=left;verticalAlign=top;spacingLeft=4;spacingRight=4;overflow=hidden;rotatable=0;points=[[0,0.5],[1,0.5]];portConstraint=eastwest;whiteSpace=wrap;html=1;fontSize=14;" parent="E-N87BtzdzfuAgRRB8JX-35" vertex="1">
          <mxGeometry y="80" width="230" height="26" as="geometry" />
        </mxCell>
        <mxCell id="E-N87BtzdzfuAgRRB8JX-43" value="+ SetLinearFunc(_k, _b)" style="text;strokeColor=none;fillColor=none;align=left;verticalAlign=top;spacingLeft=4;spacingRight=4;overflow=hidden;rotatable=0;points=[[0,0.5],[1,0.5]];portConstraint=eastwest;whiteSpace=wrap;html=1;fontSize=14;" parent="E-N87BtzdzfuAgRRB8JX-35" vertex="1">
          <mxGeometry y="106" width="230" height="26" as="geometry" />
        </mxCell>
        <mxCell id="E-N87BtzdzfuAgRRB8JX-44" value="+ TransformValue(_val)" style="text;strokeColor=none;fillColor=none;align=left;verticalAlign=top;spacingLeft=4;spacingRight=4;overflow=hidden;rotatable=0;points=[[0,0.5],[1,0.5]];portConstraint=eastwest;whiteSpace=wrap;html=1;fontSize=14;" parent="E-N87BtzdzfuAgRRB8JX-35" vertex="1">
          <mxGeometry y="132" width="230" height="26" as="geometry" />
        </mxCell>
        <mxCell id="Y1Nx8zhn-KU8UPs55CAr-11" style="edgeStyle=orthogonalEdgeStyle;rounded=0;orthogonalLoop=1;jettySize=auto;html=1;entryX=1;entryY=0.5;entryDx=0;entryDy=0;endArrow=diamondThin;endFill=1;strokeWidth=2;endSize=10;startSize=10;" edge="1" parent="WIyWlLk6GJQsqaUBKTNV-1" source="Y1Nx8zhn-KU8UPs55CAr-0" target="Y1Nx8zhn-KU8UPs55CAr-10">
          <mxGeometry relative="1" as="geometry" />
        </mxCell>
        <mxCell id="Y1Nx8zhn-KU8UPs55CAr-0" value="&lt;span style=&quot;font-weight: 400; font-size: 14px;&quot;&gt;ClassFilter&lt;/span&gt;" style="swimlane;fontStyle=1;align=center;verticalAlign=top;childLayout=stackLayout;horizontal=1;startSize=26;horizontalStack=0;resizeParent=1;resizeParentMax=0;resizeLast=0;collapsible=1;marginBottom=0;whiteSpace=wrap;html=1;fontSize=14;strokeWidth=2;" vertex="1" parent="WIyWlLk6GJQsqaUBKTNV-1">
          <mxGeometry x="1175" y="-172" width="230" height="158" as="geometry">
            <mxRectangle x="770" y="698" width="70" height="30" as="alternateBounds" />
          </mxGeometry>
        </mxCell>
        <mxCell id="RYA0Mt0scuIHqQdT-V3b-0" value="- _FilterFunc: Func" style="text;strokeColor=none;fillColor=none;align=left;verticalAlign=top;spacingLeft=4;spacingRight=4;overflow=hidden;rotatable=0;points=[[0,0.5],[1,0.5]];portConstraint=eastwest;whiteSpace=wrap;html=1;fontSize=14;" parent="Y1Nx8zhn-KU8UPs55CAr-0" vertex="1">
          <mxGeometry y="26" width="230" height="26" as="geometry" />
        </mxCell>
        <mxCell id="Y1Nx8zhn-KU8UPs55CAr-4" value="" style="line;strokeWidth=1;fillColor=none;align=left;verticalAlign=middle;spacingTop=-1;spacingLeft=3;spacingRight=3;rotatable=0;labelPosition=right;points=[];portConstraint=eastwest;strokeColor=inherit;fontSize=14;" vertex="1" parent="Y1Nx8zhn-KU8UPs55CAr-0">
          <mxGeometry y="52" width="230" height="50" as="geometry" />
        </mxCell>
        <mxCell id="E-N87BtzdzfuAgRRB8JX-28" value="+ SetFunc(_func)" style="text;align=left;verticalAlign=top;spacingLeft=4;spacingRight=4;overflow=hidden;rotatable=0;points=[[0,0.5],[1,0.5]];portConstraint=eastwest;fontSize=14;" parent="Y1Nx8zhn-KU8UPs55CAr-0" vertex="1">
          <mxGeometry y="102" width="230" height="30" as="geometry" />
        </mxCell>
        <mxCell id="Y1Nx8zhn-KU8UPs55CAr-7" value="+ FilterArray(_arr)" style="text;strokeColor=none;fillColor=none;align=left;verticalAlign=top;spacingLeft=4;spacingRight=4;overflow=hidden;rotatable=0;points=[[0,0.5],[1,0.5]];portConstraint=eastwest;whiteSpace=wrap;html=1;fontSize=14;" vertex="1" parent="Y1Nx8zhn-KU8UPs55CAr-0">
          <mxGeometry y="132" width="230" height="26" as="geometry" />
        </mxCell>
      </root>
    </mxGraphModel>
  </diagram>
  <diagram id="IGzyF_fFy54VC_3a5ceO" name="v2">
    <mxGraphModel dx="2927" dy="2229" grid="1" gridSize="10" guides="1" tooltips="1" connect="1" arrows="1" fold="1" page="1" pageScale="1" pageWidth="827" pageHeight="1169" math="0" shadow="0">
      <root>
        <mxCell id="0" />
        <mxCell id="1" parent="0" />
        <mxCell id="x2TsqS17HXeQSrJf27DX-1" value="ClassAncestorSensor" style="swimlane;fontStyle=2;align=center;verticalAlign=top;childLayout=stackLayout;horizontal=1;startSize=26;horizontalStack=0;resizeParent=1;resizeLast=0;collapsible=1;marginBottom=0;rounded=0;shadow=0;strokeWidth=2;fontSize=14;" parent="1" vertex="1">
          <mxGeometry x="180" y="-750" width="295" height="418" as="geometry">
            <mxRectangle x="255" y="-440" width="160" height="26" as="alternateBounds" />
          </mxGeometry>
        </mxCell>
        <mxCell id="x2TsqS17HXeQSrJf27DX-2" value="+ Name: String" style="text;strokeColor=none;fillColor=none;align=left;verticalAlign=top;spacingLeft=4;spacingRight=4;overflow=hidden;rotatable=0;points=[[0,0.5],[1,0.5]];portConstraint=eastwest;whiteSpace=wrap;html=1;fontSize=14;" parent="x2TsqS17HXeQSrJf27DX-1" vertex="1">
          <mxGeometry y="26" width="295" height="26" as="geometry" />
        </mxCell>
        <mxCell id="x2TsqS17HXeQSrJf27DX-3" value="+ QuantityChannel: Number" style="text;strokeColor=none;fillColor=none;align=left;verticalAlign=top;spacingLeft=4;spacingRight=4;overflow=hidden;rotatable=0;points=[[0,0.5],[1,0.5]];portConstraint=eastwest;whiteSpace=wrap;html=1;fontSize=14;" parent="x2TsqS17HXeQSrJf27DX-1" vertex="1">
          <mxGeometry y="52" width="295" height="26" as="geometry" />
        </mxCell>
        <mxCell id="x2TsqS17HXeQSrJf27DX-4" value="+ ChannelNames: String[]" style="text;strokeColor=none;fillColor=none;align=left;verticalAlign=top;spacingLeft=4;spacingRight=4;overflow=hidden;rotatable=0;points=[[0,0.5],[1,0.5]];portConstraint=eastwest;whiteSpace=wrap;html=1;fontSize=14;" parent="x2TsqS17HXeQSrJf27DX-1" vertex="1">
          <mxGeometry y="78" width="295" height="26" as="geometry" />
        </mxCell>
        <mxCell id="x2TsqS17HXeQSrJf27DX-5" value="+ Type: String" style="text;strokeColor=none;fillColor=none;align=left;verticalAlign=top;spacingLeft=4;spacingRight=4;overflow=hidden;rotatable=0;points=[[0,0.5],[1,0.5]];portConstraint=eastwest;whiteSpace=wrap;html=1;fontSize=14;" parent="x2TsqS17HXeQSrJf27DX-1" vertex="1">
          <mxGeometry y="104" width="295" height="26" as="geometry" />
        </mxCell>
        <mxCell id="x2TsqS17HXeQSrJf27DX-6" value="+ TypeInSignal: String" style="text;strokeColor=none;fillColor=none;align=left;verticalAlign=top;spacingLeft=4;spacingRight=4;overflow=hidden;rotatable=0;points=[[0,0.5],[1,0.5]];portConstraint=eastwest;whiteSpace=wrap;html=1;fontSize=14;" parent="x2TsqS17HXeQSrJf27DX-1" vertex="1">
          <mxGeometry y="130" width="295" height="26" as="geometry" />
        </mxCell>
        <mxCell id="x2TsqS17HXeQSrJf27DX-7" value="+ TypeOutSignal: String" style="text;strokeColor=none;fillColor=none;align=left;verticalAlign=top;spacingLeft=4;spacingRight=4;overflow=hidden;rotatable=0;points=[[0,0.5],[1,0.5]];portConstraint=eastwest;whiteSpace=wrap;html=1;fontSize=14;" parent="x2TsqS17HXeQSrJf27DX-1" vertex="1">
          <mxGeometry y="156" width="295" height="26" as="geometry" />
        </mxCell>
        <mxCell id="x2TsqS17HXeQSrJf27DX-8" value="+ NumMinPortsRequired: Number" style="text;strokeColor=none;fillColor=none;align=left;verticalAlign=top;spacingLeft=4;spacingRight=4;overflow=hidden;rotatable=0;points=[[0,0.5],[1,0.5]];portConstraint=eastwest;whiteSpace=wrap;html=1;fontSize=14;" parent="x2TsqS17HXeQSrJf27DX-1" vertex="1">
          <mxGeometry y="182" width="295" height="26" as="geometry" />
        </mxCell>
        <mxCell id="x2TsqS17HXeQSrJf27DX-9" value="+ BusTypes: String[]" style="text;strokeColor=none;fillColor=none;align=left;verticalAlign=top;spacingLeft=4;spacingRight=4;overflow=hidden;rotatable=0;points=[[0,0.5],[1,0.5]];portConstraint=eastwest;whiteSpace=wrap;html=1;fontSize=14;" parent="x2TsqS17HXeQSrJf27DX-1" vertex="1">
          <mxGeometry y="208" width="295" height="26" as="geometry" />
        </mxCell>
        <mxCell id="x2TsqS17HXeQSrJf27DX-10" value="+ ManufacturingData: Object" style="text;strokeColor=none;fillColor=none;align=left;verticalAlign=top;spacingLeft=4;spacingRight=4;overflow=hidden;rotatable=0;points=[[0,0.5],[1,0.5]];portConstraint=eastwest;whiteSpace=wrap;html=1;fontSize=14;" parent="x2TsqS17HXeQSrJf27DX-1" vertex="1">
          <mxGeometry y="234" width="295" height="26" as="geometry" />
        </mxCell>
        <mxCell id="x2TsqS17HXeQSrJf27DX-11" value="-&amp;nbsp;Bus" style="text;strokeColor=none;fillColor=none;align=left;verticalAlign=top;spacingLeft=4;spacingRight=4;overflow=hidden;rotatable=0;points=[[0,0.5],[1,0.5]];portConstraint=eastwest;whiteSpace=wrap;html=1;fontSize=14;" parent="x2TsqS17HXeQSrJf27DX-1" vertex="1">
          <mxGeometry y="260" width="295" height="30" as="geometry" />
        </mxCell>
        <mxCell id="x2TsqS17HXeQSrJf27DX-12" value="- Pins: Pin[]" style="text;strokeColor=none;fillColor=none;align=left;verticalAlign=top;spacingLeft=4;spacingRight=4;overflow=hidden;rotatable=0;points=[[0,0.5],[1,0.5]];portConstraint=eastwest;whiteSpace=wrap;html=1;fontSize=14;" parent="x2TsqS17HXeQSrJf27DX-1" vertex="1">
          <mxGeometry y="290" width="295" height="26" as="geometry" />
        </mxCell>
        <mxCell id="x2TsqS17HXeQSrJf27DX-13" value="- Address: Number" style="text;strokeColor=none;fillColor=none;align=left;verticalAlign=top;spacingLeft=4;spacingRight=4;overflow=hidden;rotatable=0;points=[[0,0.5],[1,0.5]];portConstraint=eastwest;whiteSpace=wrap;html=1;fontSize=14;" parent="x2TsqS17HXeQSrJf27DX-1" vertex="1">
          <mxGeometry y="316" width="295" height="26" as="geometry" />
        </mxCell>
        <mxCell id="x2TsqS17HXeQSrJf27DX-14" value="" style="line;html=1;strokeWidth=1;align=left;verticalAlign=middle;spacingTop=-1;spacingLeft=3;spacingRight=3;rotatable=0;labelPosition=right;points=[];portConstraint=eastwest;fontSize=14;" parent="x2TsqS17HXeQSrJf27DX-1" vertex="1">
          <mxGeometry y="342" width="295" height="8" as="geometry" />
        </mxCell>
        <mxCell id="x2TsqS17HXeQSrJf27DX-15" value="+ InitSensProperties(_sensor_props)" style="text;strokeColor=none;fillColor=none;align=left;verticalAlign=top;spacingLeft=4;spacingRight=4;overflow=hidden;rotatable=0;points=[[0,0.5],[1,0.5]];portConstraint=eastwest;whiteSpace=wrap;html=1;fontSize=14;" parent="x2TsqS17HXeQSrJf27DX-1" vertex="1">
          <mxGeometry y="350" width="295" height="26" as="geometry" />
        </mxCell>
        <mxCell id="eV0rOdRiKVjjIkxIUZCh-21" style="edgeStyle=orthogonalEdgeStyle;rounded=0;orthogonalLoop=1;jettySize=auto;html=1;entryX=0.5;entryY=1;entryDx=0;entryDy=0;exitX=0.5;exitY=0;exitDx=0;exitDy=0;endArrow=block;endFill=0;endSize=10;startSize=10;strokeWidth=2;" parent="1" source="v5GPuvLd2PXRPfr2Tbm4-2" target="x2TsqS17HXeQSrJf27DX-1" edge="1">
          <mxGeometry relative="1" as="geometry">
            <mxPoint x="327.5000000000002" y="-370.0000000000002" as="sourcePoint" />
          </mxGeometry>
        </mxCell>
        <mxCell id="v5GPuvLd2PXRPfr2Tbm4-2" value="ClassChannelSensor" style="swimlane;fontStyle=0;align=center;verticalAlign=top;childLayout=stackLayout;horizontal=1;startSize=26;horizontalStack=0;resizeParent=1;resizeLast=0;collapsible=1;marginBottom=0;rounded=0;shadow=0;strokeWidth=2;fontSize=14;" parent="1" vertex="1">
          <mxGeometry x="180" y="-210" width="295" height="476" as="geometry">
            <mxRectangle x="255" y="820" width="160" height="26" as="alternateBounds" />
          </mxGeometry>
        </mxCell>
        <mxCell id="v5GPuvLd2PXRPfr2Tbm4-3" value="- NumChannel: Number" style="text;align=left;verticalAlign=top;spacingLeft=4;spacingRight=4;overflow=hidden;rotatable=0;points=[[0,0.5],[1,0.5]];portConstraint=eastwest;rounded=0;shadow=0;html=0;fontSize=14;" parent="v5GPuvLd2PXRPfr2Tbm4-2" vertex="1">
          <mxGeometry y="26" width="295" height="26" as="geometry" />
        </mxCell>
        <mxCell id="v5GPuvLd2PXRPfr2Tbm4-4" value="- ThisSensor: ClassMiddleSensor" style="text;align=left;verticalAlign=top;spacingLeft=4;spacingRight=4;overflow=hidden;rotatable=0;points=[[0,0.5],[1,0.5]];portConstraint=eastwest;rounded=0;shadow=0;html=0;fontSize=14;" parent="v5GPuvLd2PXRPfr2Tbm4-2" vertex="1">
          <mxGeometry y="52" width="295" height="26" as="geometry" />
        </mxCell>
        <mxCell id="v5GPuvLd2PXRPfr2Tbm4-5" value="- DataRefine: ClassDataRefine" style="text;align=left;verticalAlign=top;spacingLeft=4;spacingRight=4;overflow=hidden;rotatable=0;points=[[0,0.5],[1,0.5]];portConstraint=eastwest;rounded=0;shadow=0;html=0;fontSize=14;" parent="v5GPuvLd2PXRPfr2Tbm4-2" vertex="1">
          <mxGeometry y="78" width="295" height="26" as="geometry" />
        </mxCell>
        <mxCell id="v5GPuvLd2PXRPfr2Tbm4-6" value="- Alarms: Alarms" style="text;align=left;verticalAlign=top;spacingLeft=4;spacingRight=4;overflow=hidden;rotatable=0;points=[[0,0.5],[1,0.5]];portConstraint=eastwest;rounded=0;shadow=0;html=0;fontSize=14;" parent="v5GPuvLd2PXRPfr2Tbm4-2" vertex="1">
          <mxGeometry y="104" width="295" height="26" as="geometry" />
        </mxCell>
        <mxCell id="v5GPuvLd2PXRPfr2Tbm4-7" value="+ IsInited: Bool" style="text;align=left;verticalAlign=top;spacingLeft=4;spacingRight=4;overflow=hidden;rotatable=0;points=[[0,0.5],[1,0.5]];portConstraint=eastwest;rounded=0;shadow=0;html=0;fontSize=14;" parent="v5GPuvLd2PXRPfr2Tbm4-2" vertex="1">
          <mxGeometry y="130" width="295" height="26" as="geometry" />
        </mxCell>
        <mxCell id="v5GPuvLd2PXRPfr2Tbm4-8" value="" style="line;html=1;strokeWidth=1;align=left;verticalAlign=middle;spacingTop=-1;spacingLeft=3;spacingRight=3;rotatable=0;labelPosition=right;points=[];portConstraint=eastwest;fontSize=14;" parent="v5GPuvLd2PXRPfr2Tbm4-2" vertex="1">
          <mxGeometry y="156" width="295" height="8" as="geometry" />
        </mxCell>
        <mxCell id="v5GPuvLd2PXRPfr2Tbm4-9" value="+ Value: Number&#xa;" style="text;align=left;verticalAlign=top;spacingLeft=4;spacingRight=4;overflow=hidden;rotatable=0;points=[[0,0.5],[1,0.5]];portConstraint=eastwest;rounded=0;shadow=0;html=0;fontSize=14;" parent="v5GPuvLd2PXRPfr2Tbm4-2" vertex="1">
          <mxGeometry y="164" width="295" height="26" as="geometry" />
        </mxCell>
        <mxCell id="v5GPuvLd2PXRPfr2Tbm4-10" value="+ ID: String&#xa;" style="text;align=left;verticalAlign=top;spacingLeft=4;spacingRight=4;overflow=hidden;rotatable=0;points=[[0,0.5],[1,0.5]];portConstraint=eastwest;rounded=0;shadow=0;html=0;fontSize=14;" parent="v5GPuvLd2PXRPfr2Tbm4-2" vertex="1">
          <mxGeometry y="190" width="295" height="26" as="geometry" />
        </mxCell>
        <mxCell id="v5GPuvLd2PXRPfr2Tbm4-11" value="+ IsUsed: Bool&#xa;" style="text;align=left;verticalAlign=top;spacingLeft=4;spacingRight=4;overflow=hidden;rotatable=0;points=[[0,0.5],[1,0.5]];portConstraint=eastwest;rounded=0;shadow=0;html=0;fontSize=14;" parent="v5GPuvLd2PXRPfr2Tbm4-2" vertex="1">
          <mxGeometry y="216" width="295" height="26" as="geometry" />
        </mxCell>
        <mxCell id="v5GPuvLd2PXRPfr2Tbm4-12" value="+ Start(period, _opts)" style="text;align=left;verticalAlign=top;spacingLeft=4;spacingRight=4;overflow=hidden;rotatable=0;points=[[0,0.5],[1,0.5]];portConstraint=eastwest;fontSize=14;" parent="v5GPuvLd2PXRPfr2Tbm4-2" vertex="1">
          <mxGeometry y="242" width="295" height="26" as="geometry" />
        </mxCell>
        <mxCell id="v5GPuvLd2PXRPfr2Tbm4-13" value="+ Stop()" style="text;align=left;verticalAlign=top;spacingLeft=4;spacingRight=4;overflow=hidden;rotatable=0;points=[[0,0.5],[1,0.5]];portConstraint=eastwest;fontSize=14;" parent="v5GPuvLd2PXRPfr2Tbm4-2" vertex="1">
          <mxGeometry y="268" width="295" height="26" as="geometry" />
        </mxCell>
        <mxCell id="v5GPuvLd2PXRPfr2Tbm4-14" value="+ ChangeFrequency(_period)" style="text;align=left;verticalAlign=top;spacingLeft=4;spacingRight=4;overflow=hidden;rotatable=0;points=[[0,0.5],[1,0.5]];portConstraint=eastwest;fontSize=14;" parent="v5GPuvLd2PXRPfr2Tbm4-2" vertex="1">
          <mxGeometry y="294" width="295" height="26" as="geometry" />
        </mxCell>
        <mxCell id="v5GPuvLd2PXRPfr2Tbm4-16" value="+ SetFilterDepth(_depth)" style="text;align=left;verticalAlign=top;spacingLeft=4;spacingRight=4;overflow=hidden;rotatable=0;points=[[0,0.5],[1,0.5]];portConstraint=eastwest;fontSize=14;" parent="v5GPuvLd2PXRPfr2Tbm4-2" vertex="1">
          <mxGeometry y="320" width="295" height="30" as="geometry" />
        </mxCell>
        <mxCell id="v5GPuvLd2PXRPfr2Tbm4-17" value="+ ConfigureRegs(_opts)" style="text;align=left;verticalAlign=top;spacingLeft=4;spacingRight=4;overflow=hidden;rotatable=0;points=[[0,0.5],[1,0.5]];portConstraint=eastwest;fontSize=14;" parent="v5GPuvLd2PXRPfr2Tbm4-2" vertex="1">
          <mxGeometry y="350" width="295" height="26" as="geometry" />
        </mxCell>
        <mxCell id="v5GPuvLd2PXRPfr2Tbm4-18" value="+ Reset()" style="text;align=left;verticalAlign=top;spacingLeft=4;spacingRight=4;overflow=hidden;rotatable=0;points=[[0,0.5],[1,0.5]];portConstraint=eastwest;fontSize=14;" parent="v5GPuvLd2PXRPfr2Tbm4-2" vertex="1">
          <mxGeometry y="376" width="295" height="26" as="geometry" />
        </mxCell>
        <mxCell id="v5GPuvLd2PXRPfr2Tbm4-19" style="edgeStyle=orthogonalEdgeStyle;rounded=0;orthogonalLoop=1;jettySize=auto;html=1;endArrow=diamondThin;endFill=1;strokeWidth=2;jumpSize=10;endSize=10;startSize=10;" parent="1" source="v5GPuvLd2PXRPfr2Tbm4-20" target="v5GPuvLd2PXRPfr2Tbm4-5" edge="1">
          <mxGeometry relative="1" as="geometry" />
        </mxCell>
        <mxCell id="v5GPuvLd2PXRPfr2Tbm4-20" value="&lt;span style=&quot;font-weight: 400; font-size: 14px;&quot;&gt;ClassLimits&lt;/span&gt;" style="swimlane;fontStyle=1;align=center;verticalAlign=top;childLayout=stackLayout;horizontal=1;startSize=26;horizontalStack=0;resizeParent=1;resizeParentMax=0;resizeLast=0;collapsible=1;marginBottom=0;whiteSpace=wrap;html=1;fontSize=14;strokeWidth=2;" parent="1" vertex="1">
          <mxGeometry x="635" y="-420" width="230" height="258" as="geometry">
            <mxRectangle x="770" y="698" width="70" height="30" as="alternateBounds" />
          </mxGeometry>
        </mxCell>
        <mxCell id="v5GPuvLd2PXRPfr2Tbm4-21" value="-Values: Number[]" style="text;strokeColor=none;fillColor=none;align=left;verticalAlign=top;spacingLeft=4;spacingRight=4;overflow=hidden;rotatable=0;points=[[0,0.5],[1,0.5]];portConstraint=eastwest;whiteSpace=wrap;html=1;fontSize=14;" parent="v5GPuvLd2PXRPfr2Tbm4-20" vertex="1">
          <mxGeometry y="26" width="230" height="26" as="geometry" />
        </mxCell>
        <mxCell id="v5GPuvLd2PXRPfr2Tbm4-22" value="-FilterFunc: Func" style="text;strokeColor=none;fillColor=none;align=left;verticalAlign=top;spacingLeft=4;spacingRight=4;overflow=hidden;rotatable=0;points=[[0,0.5],[1,0.5]];portConstraint=eastwest;whiteSpace=wrap;html=1;fontSize=14;" parent="v5GPuvLd2PXRPfr2Tbm4-20" vertex="1">
          <mxGeometry y="52" width="230" height="26" as="geometry" />
        </mxCell>
        <mxCell id="v5GPuvLd2PXRPfr2Tbm4-23" value="" style="line;strokeWidth=1;fillColor=none;align=left;verticalAlign=middle;spacingTop=-1;spacingLeft=3;spacingRight=3;rotatable=0;labelPosition=right;points=[];portConstraint=eastwest;strokeColor=inherit;fontSize=14;" parent="v5GPuvLd2PXRPfr2Tbm4-20" vertex="1">
          <mxGeometry y="78" width="230" height="50" as="geometry" />
        </mxCell>
        <mxCell id="v5GPuvLd2PXRPfr2Tbm4-24" value="+SetFilterFunc(_low, _high)" style="text;strokeColor=none;fillColor=none;align=left;verticalAlign=top;spacingLeft=4;spacingRight=4;overflow=hidden;rotatable=0;points=[[0,0.5],[1,0.5]];portConstraint=eastwest;whiteSpace=wrap;html=1;fontSize=14;" parent="v5GPuvLd2PXRPfr2Tbm4-20" vertex="1">
          <mxGeometry y="128" width="230" height="26" as="geometry" />
        </mxCell>
        <mxCell id="v5GPuvLd2PXRPfr2Tbm4-25" value="+SetLim(_low, _high)" style="text;strokeColor=none;fillColor=none;align=left;verticalAlign=top;spacingLeft=4;spacingRight=4;overflow=hidden;rotatable=0;points=[[0,0.5],[1,0.5]];portConstraint=eastwest;whiteSpace=wrap;html=1;fontSize=14;" parent="v5GPuvLd2PXRPfr2Tbm4-20" vertex="1">
          <mxGeometry y="154" width="230" height="26" as="geometry" />
        </mxCell>
        <mxCell id="v5GPuvLd2PXRPfr2Tbm4-26" value="+SuppressValue(val)" style="text;strokeColor=none;fillColor=none;align=left;verticalAlign=top;spacingLeft=4;spacingRight=4;overflow=hidden;rotatable=0;points=[[0,0.5],[1,0.5]];portConstraint=eastwest;whiteSpace=wrap;html=1;fontSize=14;" parent="v5GPuvLd2PXRPfr2Tbm4-20" vertex="1">
          <mxGeometry y="180" width="230" height="26" as="geometry" />
        </mxCell>
        <mxCell id="v5GPuvLd2PXRPfr2Tbm4-27" value="+SetTransformFunc(_k, _b)" style="text;strokeColor=none;fillColor=none;align=left;verticalAlign=top;spacingLeft=4;spacingRight=4;overflow=hidden;rotatable=0;points=[[0,0.5],[1,0.5]];portConstraint=eastwest;whiteSpace=wrap;html=1;fontSize=14;" parent="v5GPuvLd2PXRPfr2Tbm4-20" vertex="1">
          <mxGeometry y="206" width="230" height="26" as="geometry" />
        </mxCell>
        <mxCell id="v5GPuvLd2PXRPfr2Tbm4-28" value="+TransformValue(_val)" style="text;strokeColor=none;fillColor=none;align=left;verticalAlign=top;spacingLeft=4;spacingRight=4;overflow=hidden;rotatable=0;points=[[0,0.5],[1,0.5]];portConstraint=eastwest;whiteSpace=wrap;html=1;fontSize=14;" parent="v5GPuvLd2PXRPfr2Tbm4-20" vertex="1">
          <mxGeometry y="232" width="230" height="26" as="geometry" />
        </mxCell>
        <mxCell id="v5GPuvLd2PXRPfr2Tbm4-29" style="edgeStyle=orthogonalEdgeStyle;rounded=0;orthogonalLoop=1;jettySize=auto;html=1;endArrow=diamondThin;endFill=1;strokeWidth=2;jumpSize=10;endSize=10;startSize=10;" parent="1" source="v5GPuvLd2PXRPfr2Tbm4-30" target="v5GPuvLd2PXRPfr2Tbm4-6" edge="1">
          <mxGeometry relative="1" as="geometry" />
        </mxCell>
        <mxCell id="v5GPuvLd2PXRPfr2Tbm4-30" value="&lt;span style=&quot;font-weight: 400; font-size: 14px;&quot;&gt;ClassAlarms&lt;br style=&quot;font-size: 14px;&quot;&gt;&lt;/span&gt;" style="swimlane;fontStyle=1;align=center;verticalAlign=top;childLayout=stackLayout;horizontal=1;startSize=26;horizontalStack=0;resizeParent=1;resizeParentMax=0;resizeLast=0;collapsible=1;marginBottom=0;whiteSpace=wrap;html=1;strokeWidth=2;fontSize=14;" parent="1" vertex="1">
          <mxGeometry x="635" y="-40" width="230" height="216" as="geometry" />
        </mxCell>
        <mxCell id="v5GPuvLd2PXRPfr2Tbm4-31" value="- Channel: ClassChannelSensor" style="text;strokeColor=none;fillColor=none;align=left;verticalAlign=top;spacingLeft=4;spacingRight=4;overflow=hidden;rotatable=0;points=[[0,0.5],[1,0.5]];portConstraint=eastwest;whiteSpace=wrap;html=1;fontSize=14;" parent="v5GPuvLd2PXRPfr2Tbm4-30" vertex="1">
          <mxGeometry y="26" width="230" height="26" as="geometry" />
        </mxCell>
        <mxCell id="v5GPuvLd2PXRPfr2Tbm4-32" value="- Zones: Number[]" style="text;strokeColor=none;fillColor=none;align=left;verticalAlign=top;spacingLeft=4;spacingRight=4;overflow=hidden;rotatable=0;points=[[0,0.5],[1,0.5]];portConstraint=eastwest;whiteSpace=wrap;html=1;fontSize=14;" parent="v5GPuvLd2PXRPfr2Tbm4-30" vertex="1">
          <mxGeometry y="52" width="230" height="26" as="geometry" />
        </mxCell>
        <mxCell id="v5GPuvLd2PXRPfr2Tbm4-33" value="- Callbacks: Func[]" style="text;strokeColor=none;fillColor=none;align=left;verticalAlign=top;spacingLeft=4;spacingRight=4;overflow=hidden;rotatable=0;points=[[0,0.5],[1,0.5]];portConstraint=eastwest;whiteSpace=wrap;html=1;fontSize=14;" parent="v5GPuvLd2PXRPfr2Tbm4-30" vertex="1">
          <mxGeometry y="78" width="230" height="26" as="geometry" />
        </mxCell>
        <mxCell id="v5GPuvLd2PXRPfr2Tbm4-34" value="- CurrZone: String" style="text;strokeColor=none;fillColor=none;align=left;verticalAlign=top;spacingLeft=4;spacingRight=4;overflow=hidden;rotatable=0;points=[[0,0.5],[1,0.5]];portConstraint=eastwest;whiteSpace=wrap;html=1;fontSize=14;" parent="v5GPuvLd2PXRPfr2Tbm4-30" vertex="1">
          <mxGeometry y="104" width="230" height="26" as="geometry" />
        </mxCell>
        <mxCell id="v5GPuvLd2PXRPfr2Tbm4-35" value="" style="line;strokeWidth=1;fillColor=none;align=left;verticalAlign=middle;spacingTop=-1;spacingLeft=3;spacingRight=3;rotatable=0;labelPosition=right;points=[];portConstraint=eastwest;strokeColor=inherit;" parent="v5GPuvLd2PXRPfr2Tbm4-30" vertex="1">
          <mxGeometry y="130" width="230" height="34" as="geometry" />
        </mxCell>
        <mxCell id="v5GPuvLd2PXRPfr2Tbm4-36" value="+ CheckZone(in Number): void" style="text;strokeColor=none;fillColor=none;align=left;verticalAlign=top;spacingLeft=4;spacingRight=4;overflow=hidden;rotatable=0;points=[[0,0.5],[1,0.5]];portConstraint=eastwest;whiteSpace=wrap;html=1;fontSize=14;" parent="v5GPuvLd2PXRPfr2Tbm4-30" vertex="1">
          <mxGeometry y="164" width="230" height="26" as="geometry" />
        </mxCell>
        <mxCell id="v5GPuvLd2PXRPfr2Tbm4-37" value="+ SetZones(in object)" style="text;strokeColor=none;fillColor=none;align=left;verticalAlign=top;spacingLeft=4;spacingRight=4;overflow=hidden;rotatable=0;points=[[0,0.5],[1,0.5]];portConstraint=eastwest;whiteSpace=wrap;html=1;fontSize=14;" parent="v5GPuvLd2PXRPfr2Tbm4-30" vertex="1">
          <mxGeometry y="190" width="230" height="26" as="geometry" />
        </mxCell>
        <mxCell id="v5GPuvLd2PXRPfr2Tbm4-40" style="edgeStyle=orthogonalEdgeStyle;rounded=0;orthogonalLoop=1;jettySize=auto;html=1;exitX=0.5;exitY=0;exitDx=0;exitDy=0;entryX=0.587;entryY=0.023;entryDx=0;entryDy=0;entryPerimeter=0;" parent="1" source="v5GPuvLd2PXRPfr2Tbm4-20" target="v5GPuvLd2PXRPfr2Tbm4-20" edge="1">
          <mxGeometry relative="1" as="geometry" />
        </mxCell>
        <mxCell id="97dxMOJ72B3IpnUj5wkk-1" value="ClassMiddleSensor" style="swimlane;fontStyle=2;align=center;verticalAlign=top;childLayout=stackLayout;horizontal=1;startSize=26;horizontalStack=0;resizeParent=1;resizeLast=0;collapsible=1;marginBottom=0;rounded=0;shadow=0;strokeWidth=2;fontSize=12;" parent="1" vertex="1">
          <mxGeometry x="-260" y="-457" width="295" height="702" as="geometry">
            <mxRectangle x="255" y="50" width="160" height="26" as="alternateBounds" />
          </mxGeometry>
        </mxCell>
        <mxCell id="97dxMOJ72B3IpnUj5wkk-2" value="-Values: Object[]" style="text;align=left;verticalAlign=top;spacingLeft=4;spacingRight=4;overflow=hidden;rotatable=0;points=[[0,0.5],[1,0.5]];portConstraint=eastwest;fontStyle=0;fontSize=14;" parent="97dxMOJ72B3IpnUj5wkk-1" vertex="1">
          <mxGeometry y="26" width="295" height="26" as="geometry" />
        </mxCell>
        <mxCell id="97dxMOJ72B3IpnUj5wkk-3" value="-Channels: ClassChannel[]" style="text;align=left;verticalAlign=top;spacingLeft=4;spacingRight=4;overflow=hidden;rotatable=0;points=[[0,0.5],[1,0.5]];portConstraint=eastwest;fontStyle=0;fontSize=14;" parent="97dxMOJ72B3IpnUj5wkk-1" vertex="1">
          <mxGeometry y="52" width="295" height="26" as="geometry" />
        </mxCell>
        <mxCell id="97dxMOJ72B3IpnUj5wkk-4" value="-IsChUsed: Bool[]" style="text;align=left;verticalAlign=top;spacingLeft=4;spacingRight=4;overflow=hidden;rotatable=0;points=[[0,0.5],[1,0.5]];portConstraint=eastwest;fontStyle=0;fontSize=14;" parent="97dxMOJ72B3IpnUj5wkk-1" vertex="1">
          <mxGeometry y="78" width="295" height="26" as="geometry" />
        </mxCell>
        <mxCell id="97dxMOJ72B3IpnUj5wkk-5" value="" style="line;html=1;strokeWidth=1;align=left;verticalAlign=middle;spacingTop=-1;spacingLeft=3;spacingRight=3;rotatable=0;labelPosition=right;points=[];portConstraint=eastwest;fontSize=14;" parent="97dxMOJ72B3IpnUj5wkk-1" vertex="1">
          <mxGeometry y="104" width="295" height="8" as="geometry" />
        </mxCell>
        <mxCell id="97dxMOJ72B3IpnUj5wkk-6" value="+Ch[N]_Value()" style="text;align=left;verticalAlign=top;spacingLeft=4;spacingRight=4;overflow=hidden;rotatable=0;points=[[0,0.5],[1,0.5]];portConstraint=eastwest;fontSize=14;" parent="97dxMOJ72B3IpnUj5wkk-1" vertex="1">
          <mxGeometry y="112" width="295" height="28" as="geometry" />
        </mxCell>
        <mxCell id="97dxMOJ72B3IpnUj5wkk-7" value="+CountChannels(): Number&#xa;" style="text;align=left;verticalAlign=top;spacingLeft=4;spacingRight=4;overflow=hidden;rotatable=0;points=[[0,0.5],[1,0.5]];portConstraint=eastwest;fontSize=14;" parent="97dxMOJ72B3IpnUj5wkk-1" vertex="1">
          <mxGeometry y="140" width="295" height="30" as="geometry" />
        </mxCell>
        <mxCell id="97dxMOJ72B3IpnUj5wkk-8" value="+GetChannel(in Number):ClassChannelSensor&#xa;" style="text;align=left;verticalAlign=top;spacingLeft=4;spacingRight=4;overflow=hidden;rotatable=0;points=[[0,0.5],[1,0.5]];portConstraint=eastwest;fontSize=14;" parent="97dxMOJ72B3IpnUj5wkk-1" vertex="1">
          <mxGeometry y="170" width="295" height="40" as="geometry" />
        </mxCell>
        <mxCell id="97dxMOJ72B3IpnUj5wkk-9" value="+Init(_opts)" style="text;align=left;verticalAlign=top;spacingLeft=4;spacingRight=4;overflow=hidden;rotatable=0;points=[[0,0.5],[1,0.5]];portConstraint=eastwest;fontSize=14;" parent="97dxMOJ72B3IpnUj5wkk-1" vertex="1">
          <mxGeometry y="210" width="295" height="42" as="geometry" />
        </mxCell>
        <mxCell id="97dxMOJ72B3IpnUj5wkk-10" value="+InitChannels(in Number):&#xa;" style="text;align=left;verticalAlign=top;spacingLeft=4;spacingRight=4;overflow=hidden;rotatable=0;points=[[0,0.5],[1,0.5]];portConstraint=eastwest;fontSize=14;" parent="97dxMOJ72B3IpnUj5wkk-1" vertex="1">
          <mxGeometry y="252" width="295" height="40" as="geometry" />
        </mxCell>
        <mxCell id="97dxMOJ72B3IpnUj5wkk-11" value="+Start(_ch_num, _period, _opts)" style="text;align=left;verticalAlign=top;spacingLeft=4;spacingRight=4;overflow=hidden;rotatable=0;points=[[0,0.5],[1,0.5]];portConstraint=eastwest;fontSize=14;" parent="97dxMOJ72B3IpnUj5wkk-1" vertex="1">
          <mxGeometry y="292" width="295" height="40" as="geometry" />
        </mxCell>
        <mxCell id="97dxMOJ72B3IpnUj5wkk-12" value="+Stop(_ch_num)" style="text;align=left;verticalAlign=top;spacingLeft=4;spacingRight=4;overflow=hidden;rotatable=0;points=[[0,0.5],[1,0.5]];portConstraint=eastwest;fontSize=14;" parent="97dxMOJ72B3IpnUj5wkk-1" vertex="1">
          <mxGeometry y="332" width="295" height="30" as="geometry" />
        </mxCell>
        <mxCell id="97dxMOJ72B3IpnUj5wkk-13" value="+ChangeFrequency(_ch_num, _period)" style="text;align=left;verticalAlign=top;spacingLeft=4;spacingRight=4;overflow=hidden;rotatable=0;points=[[0,0.5],[1,0.5]];portConstraint=eastwest;fontSize=14;" parent="97dxMOJ72B3IpnUj5wkk-1" vertex="1">
          <mxGeometry y="362" width="295" height="40" as="geometry" />
        </mxCell>
        <mxCell id="97dxMOJ72B3IpnUj5wkk-14" value="+ConfigureRegs(_opts)" style="text;align=left;verticalAlign=top;spacingLeft=4;spacingRight=4;overflow=hidden;rotatable=0;points=[[0,0.5],[1,0.5]];portConstraint=eastwest;fontSize=14;" parent="97dxMOJ72B3IpnUj5wkk-1" vertex="1">
          <mxGeometry y="402" width="295" height="40" as="geometry" />
        </mxCell>
        <mxCell id="97dxMOJ72B3IpnUj5wkk-15" value="+Reset()" style="text;align=left;verticalAlign=top;spacingLeft=4;spacingRight=4;overflow=hidden;rotatable=0;points=[[0,0.5],[1,0.5]];portConstraint=eastwest;fontSize=14;" parent="97dxMOJ72B3IpnUj5wkk-1" vertex="1">
          <mxGeometry y="442" width="295" height="40" as="geometry" />
        </mxCell>
        <mxCell id="97dxMOJ72B3IpnUj5wkk-16" value="+Run(_ch_num, _opts)" style="text;align=left;verticalAlign=top;spacingLeft=4;spacingRight=4;overflow=hidden;rotatable=0;points=[[0,0.5],[1,0.5]];portConstraint=eastwest;fontSize=14;" parent="97dxMOJ72B3IpnUj5wkk-1" vertex="1">
          <mxGeometry y="482" width="295" height="40" as="geometry" />
        </mxCell>
        <mxCell id="97dxMOJ72B3IpnUj5wkk-17" value="+SetRepeatability(_rep)" style="text;align=left;verticalAlign=top;spacingLeft=4;spacingRight=4;overflow=hidden;rotatable=0;points=[[0,0.5],[1,0.5]];portConstraint=eastwest;fontSize=14;" parent="97dxMOJ72B3IpnUj5wkk-1" vertex="1">
          <mxGeometry y="522" width="295" height="40" as="geometry" />
        </mxCell>
        <mxCell id="97dxMOJ72B3IpnUj5wkk-18" value="+SetPrecision(_pres)" style="text;align=left;verticalAlign=top;spacingLeft=4;spacingRight=4;overflow=hidden;rotatable=0;points=[[0,0.5],[1,0.5]];portConstraint=eastwest;fontSize=14;" parent="97dxMOJ72B3IpnUj5wkk-1" vertex="1">
          <mxGeometry y="562" width="295" height="40" as="geometry" />
        </mxCell>
        <mxCell id="97dxMOJ72B3IpnUj5wkk-19" value="+Read(reg)" style="text;align=left;verticalAlign=top;spacingLeft=4;spacingRight=4;overflow=hidden;rotatable=0;points=[[0,0.5],[1,0.5]];portConstraint=eastwest;fontSize=14;" parent="97dxMOJ72B3IpnUj5wkk-1" vertex="1">
          <mxGeometry y="602" width="295" height="40" as="geometry" />
        </mxCell>
        <mxCell id="97dxMOJ72B3IpnUj5wkk-20" value="+Write(reg, val)" style="text;align=left;verticalAlign=top;spacingLeft=4;spacingRight=4;overflow=hidden;rotatable=0;points=[[0,0.5],[1,0.5]];portConstraint=eastwest;fontSize=14;" parent="97dxMOJ72B3IpnUj5wkk-1" vertex="1">
          <mxGeometry y="642" width="295" height="40" as="geometry" />
        </mxCell>
        <mxCell id="97dxMOJ72B3IpnUj5wkk-21" style="edgeStyle=orthogonalEdgeStyle;rounded=0;orthogonalLoop=1;jettySize=auto;html=1;endArrow=diamondThin;endFill=1;strokeWidth=2;endSize=10;startSize=10;" parent="1" source="97dxMOJ72B3IpnUj5wkk-11" target="v5GPuvLd2PXRPfr2Tbm4-4" edge="1">
          <mxGeometry relative="1" as="geometry" />
        </mxCell>
        <mxCell id="motwRLsLewA7_6GoVsCe-17" style="edgeStyle=orthogonalEdgeStyle;rounded=0;orthogonalLoop=1;jettySize=auto;html=1;entryX=0.5;entryY=1;entryDx=0;entryDy=0;endArrow=block;endFill=0;endSize=10;startSize=10;strokeWidth=2;" parent="1" source="motwRLsLewA7_6GoVsCe-1" target="v5GPuvLd2PXRPfr2Tbm4-2" edge="1">
          <mxGeometry relative="1" as="geometry" />
        </mxCell>
        <mxCell id="motwRLsLewA7_6GoVsCe-1" value="ClassChannelSensor" style="swimlane;fontStyle=0;align=center;verticalAlign=top;childLayout=stackLayout;horizontal=1;startSize=26;horizontalStack=0;resizeParent=1;resizeLast=0;collapsible=1;marginBottom=0;rounded=0;shadow=0;strokeWidth=2;fontSize=14;" parent="1" vertex="1">
          <mxGeometry x="180" y="420" width="295" height="110" as="geometry">
            <mxRectangle x="255" y="820" width="160" height="26" as="alternateBounds" />
          </mxGeometry>
        </mxCell>
        <mxCell id="motwRLsLewA7_6GoVsCe-7" value="" style="line;html=1;strokeWidth=1;align=left;verticalAlign=middle;spacingTop=-1;spacingLeft=3;spacingRight=3;rotatable=0;labelPosition=right;points=[];portConstraint=eastwest;fontSize=14;" parent="motwRLsLewA7_6GoVsCe-1" vertex="1">
          <mxGeometry y="26" width="295" height="8" as="geometry" />
        </mxCell>
      </root>
    </mxGraphModel>
  </diagram>
  <diagram id="108EKfPWokQIEQupiYXr" name="v3">
    <mxGraphModel dx="1235" dy="1793" grid="1" gridSize="10" guides="1" tooltips="1" connect="1" arrows="1" fold="1" page="1" pageScale="1" pageWidth="827" pageHeight="1169" math="0" shadow="0">
      <root>
        <mxCell id="0" />
        <mxCell id="1" parent="0" />
        <mxCell id="fvTx5X6WoC2H7Nj6Sc4s-1" value="ClassAncestorSensor" style="swimlane;fontStyle=2;align=center;verticalAlign=top;childLayout=stackLayout;horizontal=1;startSize=26;horizontalStack=0;resizeParent=1;resizeLast=0;collapsible=1;marginBottom=0;rounded=0;shadow=0;strokeWidth=2;fontSize=14;" parent="1" vertex="1">
          <mxGeometry x="180" y="-750" width="295" height="418" as="geometry">
            <mxRectangle x="180" y="-750" width="160" height="26" as="alternateBounds" />
          </mxGeometry>
        </mxCell>
        <mxCell id="fvTx5X6WoC2H7Nj6Sc4s-2" value="+ Name: String" style="text;strokeColor=none;fillColor=none;align=left;verticalAlign=top;spacingLeft=4;spacingRight=4;overflow=hidden;rotatable=0;points=[[0,0.5],[1,0.5]];portConstraint=eastwest;whiteSpace=wrap;html=1;fontSize=14;" parent="fvTx5X6WoC2H7Nj6Sc4s-1" vertex="1">
          <mxGeometry y="26" width="295" height="26" as="geometry" />
        </mxCell>
        <mxCell id="fvTx5X6WoC2H7Nj6Sc4s-3" value="+ QuantityChannel: Number" style="text;strokeColor=none;fillColor=none;align=left;verticalAlign=top;spacingLeft=4;spacingRight=4;overflow=hidden;rotatable=0;points=[[0,0.5],[1,0.5]];portConstraint=eastwest;whiteSpace=wrap;html=1;fontSize=14;" parent="fvTx5X6WoC2H7Nj6Sc4s-1" vertex="1">
          <mxGeometry y="52" width="295" height="26" as="geometry" />
        </mxCell>
        <mxCell id="fvTx5X6WoC2H7Nj6Sc4s-4" value="+ ChannelNames: String[]" style="text;strokeColor=none;fillColor=none;align=left;verticalAlign=top;spacingLeft=4;spacingRight=4;overflow=hidden;rotatable=0;points=[[0,0.5],[1,0.5]];portConstraint=eastwest;whiteSpace=wrap;html=1;fontSize=14;" parent="fvTx5X6WoC2H7Nj6Sc4s-1" vertex="1">
          <mxGeometry y="78" width="295" height="26" as="geometry" />
        </mxCell>
        <mxCell id="fvTx5X6WoC2H7Nj6Sc4s-5" value="+ Type: String" style="text;strokeColor=none;fillColor=none;align=left;verticalAlign=top;spacingLeft=4;spacingRight=4;overflow=hidden;rotatable=0;points=[[0,0.5],[1,0.5]];portConstraint=eastwest;whiteSpace=wrap;html=1;fontSize=14;" parent="fvTx5X6WoC2H7Nj6Sc4s-1" vertex="1">
          <mxGeometry y="104" width="295" height="26" as="geometry" />
        </mxCell>
        <mxCell id="fvTx5X6WoC2H7Nj6Sc4s-6" value="+ TypeInSignal: String" style="text;strokeColor=none;fillColor=none;align=left;verticalAlign=top;spacingLeft=4;spacingRight=4;overflow=hidden;rotatable=0;points=[[0,0.5],[1,0.5]];portConstraint=eastwest;whiteSpace=wrap;html=1;fontSize=14;" parent="fvTx5X6WoC2H7Nj6Sc4s-1" vertex="1">
          <mxGeometry y="130" width="295" height="26" as="geometry" />
        </mxCell>
        <mxCell id="fvTx5X6WoC2H7Nj6Sc4s-7" value="+ TypeOutSignal: String" style="text;strokeColor=none;fillColor=none;align=left;verticalAlign=top;spacingLeft=4;spacingRight=4;overflow=hidden;rotatable=0;points=[[0,0.5],[1,0.5]];portConstraint=eastwest;whiteSpace=wrap;html=1;fontSize=14;" parent="fvTx5X6WoC2H7Nj6Sc4s-1" vertex="1">
          <mxGeometry y="156" width="295" height="26" as="geometry" />
        </mxCell>
        <mxCell id="fvTx5X6WoC2H7Nj6Sc4s-8" value="+ NumMinPortsRequired: Number" style="text;strokeColor=none;fillColor=none;align=left;verticalAlign=top;spacingLeft=4;spacingRight=4;overflow=hidden;rotatable=0;points=[[0,0.5],[1,0.5]];portConstraint=eastwest;whiteSpace=wrap;html=1;fontSize=14;" parent="fvTx5X6WoC2H7Nj6Sc4s-1" vertex="1">
          <mxGeometry y="182" width="295" height="26" as="geometry" />
        </mxCell>
        <mxCell id="fvTx5X6WoC2H7Nj6Sc4s-9" value="+ BusTypes: String[]" style="text;strokeColor=none;fillColor=none;align=left;verticalAlign=top;spacingLeft=4;spacingRight=4;overflow=hidden;rotatable=0;points=[[0,0.5],[1,0.5]];portConstraint=eastwest;whiteSpace=wrap;html=1;fontSize=14;" parent="fvTx5X6WoC2H7Nj6Sc4s-1" vertex="1">
          <mxGeometry y="208" width="295" height="26" as="geometry" />
        </mxCell>
        <mxCell id="fvTx5X6WoC2H7Nj6Sc4s-10" value="+ ManufacturingData: Object" style="text;strokeColor=none;fillColor=none;align=left;verticalAlign=top;spacingLeft=4;spacingRight=4;overflow=hidden;rotatable=0;points=[[0,0.5],[1,0.5]];portConstraint=eastwest;whiteSpace=wrap;html=1;fontSize=14;" parent="fvTx5X6WoC2H7Nj6Sc4s-1" vertex="1">
          <mxGeometry y="234" width="295" height="26" as="geometry" />
        </mxCell>
        <mxCell id="fvTx5X6WoC2H7Nj6Sc4s-11" value="-&amp;nbsp;Bus" style="text;strokeColor=none;fillColor=none;align=left;verticalAlign=top;spacingLeft=4;spacingRight=4;overflow=hidden;rotatable=0;points=[[0,0.5],[1,0.5]];portConstraint=eastwest;whiteSpace=wrap;html=1;fontSize=14;" parent="fvTx5X6WoC2H7Nj6Sc4s-1" vertex="1">
          <mxGeometry y="260" width="295" height="30" as="geometry" />
        </mxCell>
        <mxCell id="fvTx5X6WoC2H7Nj6Sc4s-12" value="- Pins: Pin[]" style="text;strokeColor=none;fillColor=none;align=left;verticalAlign=top;spacingLeft=4;spacingRight=4;overflow=hidden;rotatable=0;points=[[0,0.5],[1,0.5]];portConstraint=eastwest;whiteSpace=wrap;html=1;fontSize=14;" parent="fvTx5X6WoC2H7Nj6Sc4s-1" vertex="1">
          <mxGeometry y="290" width="295" height="26" as="geometry" />
        </mxCell>
        <mxCell id="fvTx5X6WoC2H7Nj6Sc4s-13" value="- Address: Number" style="text;strokeColor=none;fillColor=none;align=left;verticalAlign=top;spacingLeft=4;spacingRight=4;overflow=hidden;rotatable=0;points=[[0,0.5],[1,0.5]];portConstraint=eastwest;whiteSpace=wrap;html=1;fontSize=14;" parent="fvTx5X6WoC2H7Nj6Sc4s-1" vertex="1">
          <mxGeometry y="316" width="295" height="26" as="geometry" />
        </mxCell>
        <mxCell id="fvTx5X6WoC2H7Nj6Sc4s-14" value="" style="line;html=1;strokeWidth=1;align=left;verticalAlign=middle;spacingTop=-1;spacingLeft=3;spacingRight=3;rotatable=0;labelPosition=right;points=[];portConstraint=eastwest;fontSize=14;" parent="fvTx5X6WoC2H7Nj6Sc4s-1" vertex="1">
          <mxGeometry y="342" width="295" height="8" as="geometry" />
        </mxCell>
        <mxCell id="fvTx5X6WoC2H7Nj6Sc4s-15" value="+ InitSensProperties(_sensor_props)" style="text;strokeColor=none;fillColor=none;align=left;verticalAlign=top;spacingLeft=4;spacingRight=4;overflow=hidden;rotatable=0;points=[[0,0.5],[1,0.5]];portConstraint=eastwest;whiteSpace=wrap;html=1;fontSize=14;" parent="fvTx5X6WoC2H7Nj6Sc4s-1" vertex="1">
          <mxGeometry y="350" width="295" height="26" as="geometry" />
        </mxCell>
        <mxCell id="fvTx5X6WoC2H7Nj6Sc4s-36" style="edgeStyle=orthogonalEdgeStyle;rounded=0;orthogonalLoop=1;jettySize=auto;html=1;entryX=0.5;entryY=1;entryDx=0;entryDy=0;endArrow=block;endFill=0;endSize=10;startSize=10;strokeWidth=2;" parent="1" source="fvTx5X6WoC2H7Nj6Sc4s-16" target="fvTx5X6WoC2H7Nj6Sc4s-1" edge="1">
          <mxGeometry relative="1" as="geometry" />
        </mxCell>
        <mxCell id="fvTx5X6WoC2H7Nj6Sc4s-16" value="ClassMiddleSensor" style="swimlane;fontStyle=2;align=center;verticalAlign=top;childLayout=stackLayout;horizontal=1;startSize=26;horizontalStack=0;resizeParent=1;resizeLast=0;collapsible=1;marginBottom=0;rounded=0;shadow=0;strokeWidth=2;fontSize=12;" parent="1" vertex="1">
          <mxGeometry x="180" y="-270" width="295" height="702" as="geometry">
            <mxRectangle x="180" y="-270" width="160" height="26" as="alternateBounds" />
          </mxGeometry>
        </mxCell>
        <mxCell id="fvTx5X6WoC2H7Nj6Sc4s-17" value="-Values: Object[]" style="text;align=left;verticalAlign=top;spacingLeft=4;spacingRight=4;overflow=hidden;rotatable=0;points=[[0,0.5],[1,0.5]];portConstraint=eastwest;fontStyle=0;fontSize=14;" parent="fvTx5X6WoC2H7Nj6Sc4s-16" vertex="1">
          <mxGeometry y="26" width="295" height="26" as="geometry" />
        </mxCell>
        <mxCell id="fvTx5X6WoC2H7Nj6Sc4s-18" value="-Channels: ClassChannel[]" style="text;align=left;verticalAlign=top;spacingLeft=4;spacingRight=4;overflow=hidden;rotatable=0;points=[[0,0.5],[1,0.5]];portConstraint=eastwest;fontStyle=0;fontSize=14;" parent="fvTx5X6WoC2H7Nj6Sc4s-16" vertex="1">
          <mxGeometry y="52" width="295" height="26" as="geometry" />
        </mxCell>
        <mxCell id="fvTx5X6WoC2H7Nj6Sc4s-19" value="-IsChUsed: Bool[]" style="text;align=left;verticalAlign=top;spacingLeft=4;spacingRight=4;overflow=hidden;rotatable=0;points=[[0,0.5],[1,0.5]];portConstraint=eastwest;fontStyle=0;fontSize=14;" parent="fvTx5X6WoC2H7Nj6Sc4s-16" vertex="1">
          <mxGeometry y="78" width="295" height="26" as="geometry" />
        </mxCell>
        <mxCell id="fvTx5X6WoC2H7Nj6Sc4s-20" value="" style="line;html=1;strokeWidth=1;align=left;verticalAlign=middle;spacingTop=-1;spacingLeft=3;spacingRight=3;rotatable=0;labelPosition=right;points=[];portConstraint=eastwest;fontSize=14;" parent="fvTx5X6WoC2H7Nj6Sc4s-16" vertex="1">
          <mxGeometry y="104" width="295" height="8" as="geometry" />
        </mxCell>
        <mxCell id="fvTx5X6WoC2H7Nj6Sc4s-21" value="+Ch[N]_Value()" style="text;align=left;verticalAlign=top;spacingLeft=4;spacingRight=4;overflow=hidden;rotatable=0;points=[[0,0.5],[1,0.5]];portConstraint=eastwest;fontSize=14;" parent="fvTx5X6WoC2H7Nj6Sc4s-16" vertex="1">
          <mxGeometry y="112" width="295" height="28" as="geometry" />
        </mxCell>
        <mxCell id="fvTx5X6WoC2H7Nj6Sc4s-22" value="+CountChannels(): Number&#xa;" style="text;align=left;verticalAlign=top;spacingLeft=4;spacingRight=4;overflow=hidden;rotatable=0;points=[[0,0.5],[1,0.5]];portConstraint=eastwest;fontSize=14;" parent="fvTx5X6WoC2H7Nj6Sc4s-16" vertex="1">
          <mxGeometry y="140" width="295" height="30" as="geometry" />
        </mxCell>
        <mxCell id="fvTx5X6WoC2H7Nj6Sc4s-23" value="+GetChannel(in Number):ClassChannelSensor&#xa;" style="text;align=left;verticalAlign=top;spacingLeft=4;spacingRight=4;overflow=hidden;rotatable=0;points=[[0,0.5],[1,0.5]];portConstraint=eastwest;fontSize=14;" parent="fvTx5X6WoC2H7Nj6Sc4s-16" vertex="1">
          <mxGeometry y="170" width="295" height="40" as="geometry" />
        </mxCell>
        <mxCell id="fvTx5X6WoC2H7Nj6Sc4s-24" value="+Init(_opts)" style="text;align=left;verticalAlign=top;spacingLeft=4;spacingRight=4;overflow=hidden;rotatable=0;points=[[0,0.5],[1,0.5]];portConstraint=eastwest;fontSize=14;" parent="fvTx5X6WoC2H7Nj6Sc4s-16" vertex="1">
          <mxGeometry y="210" width="295" height="42" as="geometry" />
        </mxCell>
        <mxCell id="fvTx5X6WoC2H7Nj6Sc4s-25" value="+InitChannels(in Number):&#xa;" style="text;align=left;verticalAlign=top;spacingLeft=4;spacingRight=4;overflow=hidden;rotatable=0;points=[[0,0.5],[1,0.5]];portConstraint=eastwest;fontSize=14;" parent="fvTx5X6WoC2H7Nj6Sc4s-16" vertex="1">
          <mxGeometry y="252" width="295" height="40" as="geometry" />
        </mxCell>
        <mxCell id="fvTx5X6WoC2H7Nj6Sc4s-26" value="+Start(_ch_num, _period, _opts)" style="text;align=left;verticalAlign=top;spacingLeft=4;spacingRight=4;overflow=hidden;rotatable=0;points=[[0,0.5],[1,0.5]];portConstraint=eastwest;fontSize=14;" parent="fvTx5X6WoC2H7Nj6Sc4s-16" vertex="1">
          <mxGeometry y="292" width="295" height="40" as="geometry" />
        </mxCell>
        <mxCell id="fvTx5X6WoC2H7Nj6Sc4s-27" value="+Stop(_ch_num)" style="text;align=left;verticalAlign=top;spacingLeft=4;spacingRight=4;overflow=hidden;rotatable=0;points=[[0,0.5],[1,0.5]];portConstraint=eastwest;fontSize=14;" parent="fvTx5X6WoC2H7Nj6Sc4s-16" vertex="1">
          <mxGeometry y="332" width="295" height="30" as="geometry" />
        </mxCell>
        <mxCell id="fvTx5X6WoC2H7Nj6Sc4s-28" value="+ChangeFrequency(_ch_num, _period)" style="text;align=left;verticalAlign=top;spacingLeft=4;spacingRight=4;overflow=hidden;rotatable=0;points=[[0,0.5],[1,0.5]];portConstraint=eastwest;fontSize=14;" parent="fvTx5X6WoC2H7Nj6Sc4s-16" vertex="1">
          <mxGeometry y="362" width="295" height="40" as="geometry" />
        </mxCell>
        <mxCell id="fvTx5X6WoC2H7Nj6Sc4s-29" value="+ConfigureRegs(_opts)" style="text;align=left;verticalAlign=top;spacingLeft=4;spacingRight=4;overflow=hidden;rotatable=0;points=[[0,0.5],[1,0.5]];portConstraint=eastwest;fontSize=14;" parent="fvTx5X6WoC2H7Nj6Sc4s-16" vertex="1">
          <mxGeometry y="402" width="295" height="40" as="geometry" />
        </mxCell>
        <mxCell id="fvTx5X6WoC2H7Nj6Sc4s-30" value="+Reset()" style="text;align=left;verticalAlign=top;spacingLeft=4;spacingRight=4;overflow=hidden;rotatable=0;points=[[0,0.5],[1,0.5]];portConstraint=eastwest;fontSize=14;" parent="fvTx5X6WoC2H7Nj6Sc4s-16" vertex="1">
          <mxGeometry y="442" width="295" height="40" as="geometry" />
        </mxCell>
        <mxCell id="fvTx5X6WoC2H7Nj6Sc4s-31" value="+Run(_ch_num, _opts)" style="text;align=left;verticalAlign=top;spacingLeft=4;spacingRight=4;overflow=hidden;rotatable=0;points=[[0,0.5],[1,0.5]];portConstraint=eastwest;fontSize=14;" parent="fvTx5X6WoC2H7Nj6Sc4s-16" vertex="1">
          <mxGeometry y="482" width="295" height="40" as="geometry" />
        </mxCell>
        <mxCell id="fvTx5X6WoC2H7Nj6Sc4s-32" value="+SetRepeatability(_rep)" style="text;align=left;verticalAlign=top;spacingLeft=4;spacingRight=4;overflow=hidden;rotatable=0;points=[[0,0.5],[1,0.5]];portConstraint=eastwest;fontSize=14;" parent="fvTx5X6WoC2H7Nj6Sc4s-16" vertex="1">
          <mxGeometry y="522" width="295" height="40" as="geometry" />
        </mxCell>
        <mxCell id="fvTx5X6WoC2H7Nj6Sc4s-33" value="+SetPrecision(_pres)" style="text;align=left;verticalAlign=top;spacingLeft=4;spacingRight=4;overflow=hidden;rotatable=0;points=[[0,0.5],[1,0.5]];portConstraint=eastwest;fontSize=14;" parent="fvTx5X6WoC2H7Nj6Sc4s-16" vertex="1">
          <mxGeometry y="562" width="295" height="40" as="geometry" />
        </mxCell>
        <mxCell id="fvTx5X6WoC2H7Nj6Sc4s-34" value="+Read(reg)" style="text;align=left;verticalAlign=top;spacingLeft=4;spacingRight=4;overflow=hidden;rotatable=0;points=[[0,0.5],[1,0.5]];portConstraint=eastwest;fontSize=14;" parent="fvTx5X6WoC2H7Nj6Sc4s-16" vertex="1">
          <mxGeometry y="602" width="295" height="40" as="geometry" />
        </mxCell>
        <mxCell id="fvTx5X6WoC2H7Nj6Sc4s-35" value="+Write(reg, val)" style="text;align=left;verticalAlign=top;spacingLeft=4;spacingRight=4;overflow=hidden;rotatable=0;points=[[0,0.5],[1,0.5]];portConstraint=eastwest;fontSize=14;" parent="fvTx5X6WoC2H7Nj6Sc4s-16" vertex="1">
          <mxGeometry y="642" width="295" height="40" as="geometry" />
        </mxCell>
        <mxCell id="fvTx5X6WoC2H7Nj6Sc4s-41" style="edgeStyle=orthogonalEdgeStyle;rounded=0;orthogonalLoop=1;jettySize=auto;html=1;entryX=0.5;entryY=1;entryDx=0;entryDy=0;endArrow=block;endFill=0;strokeWidth=2;endSize=10;startSize=10;" parent="1" source="fvTx5X6WoC2H7Nj6Sc4s-37" target="fvTx5X6WoC2H7Nj6Sc4s-16" edge="1">
          <mxGeometry relative="1" as="geometry" />
        </mxCell>
        <mxCell id="fvTx5X6WoC2H7Nj6Sc4s-37" value="ClassCertainSensor" style="swimlane;fontStyle=1;align=center;verticalAlign=top;childLayout=stackLayout;horizontal=1;startSize=26;horizontalStack=0;resizeParent=1;resizeParentMax=0;resizeLast=0;collapsible=1;marginBottom=0;whiteSpace=wrap;html=1;fontSize=14;" parent="1" vertex="1">
          <mxGeometry x="182.5" y="568" width="290" height="34" as="geometry">
            <mxRectangle x="182.5" y="568" width="110" height="30" as="alternateBounds" />
          </mxGeometry>
        </mxCell>
        <mxCell id="fvTx5X6WoC2H7Nj6Sc4s-39" value="" style="line;strokeWidth=1;fillColor=none;align=left;verticalAlign=middle;spacingTop=-1;spacingLeft=3;spacingRight=3;rotatable=0;labelPosition=right;points=[];portConstraint=eastwest;strokeColor=inherit;" parent="fvTx5X6WoC2H7Nj6Sc4s-37" vertex="1">
          <mxGeometry y="26" width="290" height="8" as="geometry" />
        </mxCell>
        <mxCell id="rlrDSWQIeLgjDwcfp4GR-33" style="edgeStyle=orthogonalEdgeStyle;rounded=0;orthogonalLoop=1;jettySize=auto;html=1;endArrow=block;endFill=0;endSize=10;startSize=10;strokeWidth=2;" parent="1" source="rlrDSWQIeLgjDwcfp4GR-17" target="fvTx5X6WoC2H7Nj6Sc4s-37" edge="1">
          <mxGeometry relative="1" as="geometry" />
        </mxCell>
        <mxCell id="rlrDSWQIeLgjDwcfp4GR-17" value="lambda class (Channel)" style="swimlane;fontStyle=0;align=center;verticalAlign=top;childLayout=stackLayout;horizontal=1;startSize=26;horizontalStack=0;resizeParent=1;resizeLast=0;collapsible=1;marginBottom=0;rounded=0;shadow=0;strokeWidth=2;fontSize=14;" parent="1" vertex="1">
          <mxGeometry x="180" y="693" width="295" height="476" as="geometry">
            <mxRectangle x="180" y="693" width="160" height="26" as="alternateBounds" />
          </mxGeometry>
        </mxCell>
        <mxCell id="rlrDSWQIeLgjDwcfp4GR-18" value="- NumChannel: Number" style="text;align=left;verticalAlign=top;spacingLeft=4;spacingRight=4;overflow=hidden;rotatable=0;points=[[0,0.5],[1,0.5]];portConstraint=eastwest;rounded=0;shadow=0;html=0;fontSize=14;" parent="rlrDSWQIeLgjDwcfp4GR-17" vertex="1">
          <mxGeometry y="26" width="295" height="26" as="geometry" />
        </mxCell>
        <mxCell id="rlrDSWQIeLgjDwcfp4GR-20" value="- DataRefine: ClassDataRefine" style="text;align=left;verticalAlign=top;spacingLeft=4;spacingRight=4;overflow=hidden;rotatable=0;points=[[0,0.5],[1,0.5]];portConstraint=eastwest;rounded=0;shadow=0;html=0;fontSize=14;" parent="rlrDSWQIeLgjDwcfp4GR-17" vertex="1">
          <mxGeometry y="52" width="295" height="26" as="geometry" />
        </mxCell>
        <mxCell id="rlrDSWQIeLgjDwcfp4GR-21" value="- Alarms: Alarms" style="text;align=left;verticalAlign=top;spacingLeft=4;spacingRight=4;overflow=hidden;rotatable=0;points=[[0,0.5],[1,0.5]];portConstraint=eastwest;rounded=0;shadow=0;html=0;fontSize=14;" parent="rlrDSWQIeLgjDwcfp4GR-17" vertex="1">
          <mxGeometry y="78" width="295" height="26" as="geometry" />
        </mxCell>
        <mxCell id="rlrDSWQIeLgjDwcfp4GR-22" value="+ IsInited: Bool" style="text;align=left;verticalAlign=top;spacingLeft=4;spacingRight=4;overflow=hidden;rotatable=0;points=[[0,0.5],[1,0.5]];portConstraint=eastwest;rounded=0;shadow=0;html=0;fontSize=14;" parent="rlrDSWQIeLgjDwcfp4GR-17" vertex="1">
          <mxGeometry y="104" width="295" height="26" as="geometry" />
        </mxCell>
        <mxCell id="rlrDSWQIeLgjDwcfp4GR-23" value="" style="line;html=1;strokeWidth=1;align=left;verticalAlign=middle;spacingTop=-1;spacingLeft=3;spacingRight=3;rotatable=0;labelPosition=right;points=[];portConstraint=eastwest;fontSize=14;" parent="rlrDSWQIeLgjDwcfp4GR-17" vertex="1">
          <mxGeometry y="130" width="295" height="8" as="geometry" />
        </mxCell>
        <mxCell id="rlrDSWQIeLgjDwcfp4GR-24" value="+ Value: Number&#xa;" style="text;align=left;verticalAlign=top;spacingLeft=4;spacingRight=4;overflow=hidden;rotatable=0;points=[[0,0.5],[1,0.5]];portConstraint=eastwest;rounded=0;shadow=0;html=0;fontSize=14;" parent="rlrDSWQIeLgjDwcfp4GR-17" vertex="1">
          <mxGeometry y="138" width="295" height="26" as="geometry" />
        </mxCell>
        <mxCell id="rlrDSWQIeLgjDwcfp4GR-25" value="+ ID: String&#xa;" style="text;align=left;verticalAlign=top;spacingLeft=4;spacingRight=4;overflow=hidden;rotatable=0;points=[[0,0.5],[1,0.5]];portConstraint=eastwest;rounded=0;shadow=0;html=0;fontSize=14;" parent="rlrDSWQIeLgjDwcfp4GR-17" vertex="1">
          <mxGeometry y="164" width="295" height="26" as="geometry" />
        </mxCell>
        <mxCell id="rlrDSWQIeLgjDwcfp4GR-26" value="+ IsUsed: Bool&#xa;" style="text;align=left;verticalAlign=top;spacingLeft=4;spacingRight=4;overflow=hidden;rotatable=0;points=[[0,0.5],[1,0.5]];portConstraint=eastwest;rounded=0;shadow=0;html=0;fontSize=14;" parent="rlrDSWQIeLgjDwcfp4GR-17" vertex="1">
          <mxGeometry y="190" width="295" height="26" as="geometry" />
        </mxCell>
        <mxCell id="rlrDSWQIeLgjDwcfp4GR-27" value="+ Start(period, _opts)" style="text;align=left;verticalAlign=top;spacingLeft=4;spacingRight=4;overflow=hidden;rotatable=0;points=[[0,0.5],[1,0.5]];portConstraint=eastwest;fontSize=14;" parent="rlrDSWQIeLgjDwcfp4GR-17" vertex="1">
          <mxGeometry y="216" width="295" height="26" as="geometry" />
        </mxCell>
        <mxCell id="rlrDSWQIeLgjDwcfp4GR-28" value="+ Stop()" style="text;align=left;verticalAlign=top;spacingLeft=4;spacingRight=4;overflow=hidden;rotatable=0;points=[[0,0.5],[1,0.5]];portConstraint=eastwest;fontSize=14;" parent="rlrDSWQIeLgjDwcfp4GR-17" vertex="1">
          <mxGeometry y="242" width="295" height="26" as="geometry" />
        </mxCell>
        <mxCell id="rlrDSWQIeLgjDwcfp4GR-29" value="+ ChangeFrequency(_period)" style="text;align=left;verticalAlign=top;spacingLeft=4;spacingRight=4;overflow=hidden;rotatable=0;points=[[0,0.5],[1,0.5]];portConstraint=eastwest;fontSize=14;" parent="rlrDSWQIeLgjDwcfp4GR-17" vertex="1">
          <mxGeometry y="268" width="295" height="26" as="geometry" />
        </mxCell>
        <mxCell id="rlrDSWQIeLgjDwcfp4GR-30" value="+ SetFilterDepth(_depth)" style="text;align=left;verticalAlign=top;spacingLeft=4;spacingRight=4;overflow=hidden;rotatable=0;points=[[0,0.5],[1,0.5]];portConstraint=eastwest;fontSize=14;" parent="rlrDSWQIeLgjDwcfp4GR-17" vertex="1">
          <mxGeometry y="294" width="295" height="30" as="geometry" />
        </mxCell>
        <mxCell id="rlrDSWQIeLgjDwcfp4GR-31" value="+ ConfigureRegs(_opts)" style="text;align=left;verticalAlign=top;spacingLeft=4;spacingRight=4;overflow=hidden;rotatable=0;points=[[0,0.5],[1,0.5]];portConstraint=eastwest;fontSize=14;" parent="rlrDSWQIeLgjDwcfp4GR-17" vertex="1">
          <mxGeometry y="324" width="295" height="26" as="geometry" />
        </mxCell>
        <mxCell id="rlrDSWQIeLgjDwcfp4GR-32" value="+ Reset()" style="text;align=left;verticalAlign=top;spacingLeft=4;spacingRight=4;overflow=hidden;rotatable=0;points=[[0,0.5],[1,0.5]];portConstraint=eastwest;fontSize=14;" parent="rlrDSWQIeLgjDwcfp4GR-17" vertex="1">
          <mxGeometry y="350" width="295" height="26" as="geometry" />
        </mxCell>
        <mxCell id="3BQ55qLbOyDFFC5q7vhV-1" value="ClassVL6180" style="html=1;whiteSpace=wrap;" vertex="1" parent="1">
          <mxGeometry x="650" y="874" width="110" height="40" as="geometry" />
        </mxCell>
        <mxCell id="3BQ55qLbOyDFFC5q7vhV-2" style="edgeStyle=orthogonalEdgeStyle;rounded=0;orthogonalLoop=1;jettySize=auto;html=1;entryX=0;entryY=0.5;entryDx=0;entryDy=0;" edge="1" parent="1" source="3BQ55qLbOyDFFC5q7vhV-3" target="3BQ55qLbOyDFFC5q7vhV-7">
          <mxGeometry relative="1" as="geometry" />
        </mxCell>
        <mxCell id="3BQ55qLbOyDFFC5q7vhV-3" value="CreateChannel" style="html=1;whiteSpace=wrap;" vertex="1" parent="1">
          <mxGeometry x="823" y="866" width="150" height="130" as="geometry" />
        </mxCell>
        <mxCell id="3BQ55qLbOyDFFC5q7vhV-4" style="edgeStyle=orthogonalEdgeStyle;rounded=0;orthogonalLoop=1;jettySize=auto;html=1;entryX=0;entryY=0.75;entryDx=0;entryDy=0;" edge="1" parent="1" source="3BQ55qLbOyDFFC5q7vhV-5" target="3BQ55qLbOyDFFC5q7vhV-3">
          <mxGeometry relative="1" as="geometry" />
        </mxCell>
        <mxCell id="3BQ55qLbOyDFFC5q7vhV-5" value="Номер канала" style="html=1;whiteSpace=wrap;" vertex="1" parent="1">
          <mxGeometry x="650" y="944" width="110" height="40" as="geometry" />
        </mxCell>
        <mxCell id="3BQ55qLbOyDFFC5q7vhV-6" style="edgeStyle=orthogonalEdgeStyle;rounded=0;orthogonalLoop=1;jettySize=auto;html=1;entryX=-0.012;entryY=0.216;entryDx=0;entryDy=0;entryPerimeter=0;" edge="1" parent="1" source="3BQ55qLbOyDFFC5q7vhV-1" target="3BQ55qLbOyDFFC5q7vhV-3">
          <mxGeometry relative="1" as="geometry" />
        </mxCell>
        <mxCell id="3BQ55qLbOyDFFC5q7vhV-7" value="ClassChannel" style="html=1;whiteSpace=wrap;" vertex="1" parent="1">
          <mxGeometry x="1033" y="911" width="110" height="40" as="geometry" />
        </mxCell>
      </root>
    </mxGraphModel>
  </diagram>
  <diagram id="4Z0y_cmg7tHMWYmupxcl" name="Страница — 4">
    <mxGraphModel dx="477" dy="241" grid="1" gridSize="10" guides="1" tooltips="1" connect="1" arrows="1" fold="1" page="1" pageScale="1" pageWidth="1100" pageHeight="850" math="0" shadow="0">
      <root>
        <mxCell id="0" />
        <mxCell id="1" parent="0" />
        <mxCell id="cqYbgRfkv_MSzo9w_BSz-1" value="ClassSensor" style="ellipse;whiteSpace=wrap;html=1;aspect=fixed;fontSize=16;" vertex="1" parent="1">
          <mxGeometry x="450" y="440" width="110" height="110" as="geometry" />
        </mxCell>
        <mxCell id="cqYbgRfkv_MSzo9w_BSz-2" value="ClassChannel" style="ellipse;whiteSpace=wrap;html=1;aspect=fixed;fontSize=16;" vertex="1" parent="1">
          <mxGeometry x="720" y="440" width="110" height="110" as="geometry" />
        </mxCell>
        <mxCell id="cqYbgRfkv_MSzo9w_BSz-7" value="" style="curved=1;endArrow=classic;html=1;rounded=0;exitX=1.01;exitY=0.608;exitDx=0;exitDy=0;entryX=0.021;entryY=0.571;entryDx=0;entryDy=0;exitPerimeter=0;entryPerimeter=0;" edge="1" parent="1" source="cqYbgRfkv_MSzo9w_BSz-1" target="cqYbgRfkv_MSzo9w_BSz-2">
          <mxGeometry width="50" height="50" relative="1" as="geometry">
            <mxPoint x="690" y="550" as="sourcePoint" />
            <mxPoint x="720" y="500" as="targetPoint" />
            <Array as="points">
              <mxPoint x="630" y="530" />
            </Array>
          </mxGeometry>
        </mxCell>
        <mxCell id="cqYbgRfkv_MSzo9w_BSz-17" value="value" style="edgeLabel;html=1;align=center;verticalAlign=middle;resizable=0;points=[];" vertex="1" connectable="0" parent="cqYbgRfkv_MSzo9w_BSz-7">
          <mxGeometry x="-0.0387" y="10" relative="1" as="geometry">
            <mxPoint y="7" as="offset" />
          </mxGeometry>
        </mxCell>
        <mxCell id="cqYbgRfkv_MSzo9w_BSz-8" value="" style="curved=1;endArrow=classic;html=1;rounded=0;exitX=0;exitY=0.421;exitDx=0;exitDy=0;entryX=1;entryY=0.5;entryDx=0;entryDy=0;exitPerimeter=0;" edge="1" parent="1" source="cqYbgRfkv_MSzo9w_BSz-2" target="cqYbgRfkv_MSzo9w_BSz-1">
          <mxGeometry width="50" height="50" relative="1" as="geometry">
            <mxPoint x="650" y="570" as="sourcePoint" />
            <mxPoint x="700" y="520" as="targetPoint" />
            <Array as="points">
              <mxPoint x="640" y="470" />
            </Array>
          </mxGeometry>
        </mxCell>
        <mxCell id="cqYbgRfkv_MSzo9w_BSz-16" value="&lt;span style=&quot;font-size: 12px; text-wrap: wrap; background-color: rgb(251, 251, 251);&quot;&gt;get Value_i&lt;/span&gt;" style="edgeLabel;html=1;align=center;verticalAlign=middle;resizable=0;points=[];" vertex="1" connectable="0" parent="cqYbgRfkv_MSzo9w_BSz-8">
          <mxGeometry x="-0.0869" y="6" relative="1" as="geometry">
            <mxPoint x="-5" y="-12" as="offset" />
          </mxGeometry>
        </mxCell>
        <mxCell id="cqYbgRfkv_MSzo9w_BSz-9" value="Actor" style="shape=umlActor;verticalLabelPosition=bottom;verticalAlign=top;html=1;outlineConnect=0;" vertex="1" parent="1">
          <mxGeometry x="950" y="465" width="30" height="60" as="geometry" />
        </mxCell>
        <mxCell id="cqYbgRfkv_MSzo9w_BSz-13" value="" style="curved=1;endArrow=classic;html=1;rounded=0;entryX=1.009;entryY=0.438;entryDx=0;entryDy=0;entryPerimeter=0;" edge="1" parent="1" target="cqYbgRfkv_MSzo9w_BSz-2">
          <mxGeometry width="50" height="50" relative="1" as="geometry">
            <mxPoint x="950" y="490" as="sourcePoint" />
            <mxPoint x="1010" y="480" as="targetPoint" />
            <Array as="points">
              <mxPoint x="890" y="480" />
            </Array>
          </mxGeometry>
        </mxCell>
        <mxCell id="cqYbgRfkv_MSzo9w_BSz-15" value="get Value()" style="edgeLabel;html=1;align=center;verticalAlign=middle;resizable=0;points=[];" vertex="1" connectable="0" parent="cqYbgRfkv_MSzo9w_BSz-13">
          <mxGeometry x="0.1474" y="1" relative="1" as="geometry">
            <mxPoint y="-12" as="offset" />
          </mxGeometry>
        </mxCell>
        <mxCell id="cqYbgRfkv_MSzo9w_BSz-14" value="" style="curved=1;endArrow=classic;html=1;rounded=0;exitX=1.012;exitY=0.534;exitDx=0;exitDy=0;exitPerimeter=0;" edge="1" parent="1" source="cqYbgRfkv_MSzo9w_BSz-2" target="cqYbgRfkv_MSzo9w_BSz-9">
          <mxGeometry width="50" height="50" relative="1" as="geometry">
            <mxPoint x="860" y="520" as="sourcePoint" />
            <mxPoint x="910" y="470" as="targetPoint" />
            <Array as="points">
              <mxPoint x="900" y="510" />
            </Array>
          </mxGeometry>
        </mxCell>
        <mxCell id="cqYbgRfkv_MSzo9w_BSz-18" value="value" style="edgeLabel;html=1;align=center;verticalAlign=middle;resizable=0;points=[];" vertex="1" connectable="0" parent="cqYbgRfkv_MSzo9w_BSz-14">
          <mxGeometry x="-0.0271" y="3" relative="1" as="geometry">
            <mxPoint y="5" as="offset" />
          </mxGeometry>
        </mxCell>
      </root>
    </mxGraphModel>
  </diagram>
</mxfile>
